<svg xmlns="http://www.w3.org/2000/svg" width="532.392" height="120.903" viewBox="0 0 532.392 120.903">
  <g id="Layer_1" data-name="Layer 1" transform="translate(666.002 364)">
    <g id="Group_3" data-name="Group 3" transform="translate(-666 -364)">
      <g id="Group_1" data-name="Group 1">
        <path id="Path_1" data-name="Path 1" d="M93.91,105.46a2.317,2.317,0,0,1-2.66-1.6L79.57,73a12.174,12.174,0,0,0-13.5-8.11,12.005,12.005,0,0,0-4.13,1.53L29.65,85.77l-.82.31a2.411,2.411,0,0,1-1.22-.11L1.55,76.3a2.384,2.384,0,0,1-.39-4.28L75.6,27.9a12.936,12.936,0,0,1,4.39-1.62,12.753,12.753,0,0,1,14.29,8.53l22.91,67.3a2.332,2.332,0,0,1-.21,1.98,2.358,2.358,0,0,1-1.64,1.13l-21.43.23Z" fill="#049e76"/>
        <path id="Path_2" data-name="Path 2" d="M82.24,120.86a3.325,3.325,0,0,1-1.7-.17L30.13,102.01a3.3,3.3,0,0,1-.55-5.93L66.36,74.2a3.338,3.338,0,0,1,1.14-.42,3.236,3.236,0,0,1,3.68,2.21l13.64,40.55a3.266,3.266,0,0,1-.28,2.73,3.349,3.349,0,0,1-2.3,1.59Z" fill="#049e76"/>
      </g>
      <g id="Group_2" data-name="Group 2">
        <path id="Path_3" data-name="Path 3" d="M116.29,29.65h20.27l12.03,39.06c2.21,7.19,3.38,12.04,3.38,12.04h.3s1.02-4.85,3.23-12.04l12.33-39.06h19.96l-26.28,75.32h-19.1L116.28,29.65Z" fill="#2e2e2e"/>
        <path id="Path_4" data-name="Path 4" d="M224.59,27.75c-21.98,0-31.87,11.59-32.37,24.78h17.69c.6-7.19,5.2-10.59,14.59-10.59,8.39,0,12.59,3.6,12.59,8.99,0,5.7-5.7,6.79-18.19,8.49-16.79,2.4-30.27,7.69-30.27,24.28,0,14.99,10.89,23.08,26.28,23.08,12.99,0,18.38-4.5,22.18-10.19h.3c.5,3.4,1.2,6.89,2.4,8.39h16.59V55.52c0-17.69-9.09-27.78-31.77-27.78Zm12.99,50.66c0,7.29-6.39,14.39-17.79,14.39-7.09,0-11.79-2.5-11.79-9.59s5.2-9.39,15.59-11.69c5-1.2,10.39-2.4,13.99-4.4V78.41Z" fill="#2e2e2e"/>
        <path id="Path_5" data-name="Path 5" d="M269.22,0h19.97V104.97H269.22Z" fill="#2e2e2e"/>
        <path id="Path_6" data-name="Path 6" d="M298.71,67.39c0-22.46,16-39.78,39.34-39.78S377.4,44.93,377.4,67.39s-16,39.79-39.35,39.79S298.71,89.85,298.71,67.39Zm58.44,0c0-14.68-6.91-24.67-19.1-24.67s-19.09,9.99-19.09,24.67,6.76,24.52,19.09,24.52S357.15,82.07,357.15,67.39Z" fill="#2e2e2e"/>
        <path id="Path_7" data-name="Path 7" d="M405.85,41.69h.44c4.56-8.52,9.69-12.92,18.5-12.92a13.042,13.042,0,0,1,4.7.59V46.84h-.44c-13.08-1.33-22.47,5.57-22.47,21.44v36.7H386.62V29.65h19.23V41.69Z" fill="#2e2e2e"/>
        <path id="Path_8" data-name="Path 8" d="M438.14,29.65H458.1v75.32H438.14Zm21.41-18.23A11.42,11.42,0,1,1,448.13,0,11.416,11.416,0,0,1,459.55,11.42Z" fill="#2e2e2e"/>
        <path id="Path_9" data-name="Path 9" d="M468.52,89.7l38.77-43.9v-.44H472.93V29.65h57.55v16L492.6,88.53v.44h39.79v16H468.52V89.7Z" fill="#2e2e2e"/>
      </g>
    </g>
  </g>
</svg>
