<svg width="169" height="40" viewBox="0 0 169 40" fill="none" xmlns="http://www.w3.org/2000/svg">
<g clip-path="url(#clip0_5_3)">
<mask id="mask0_5_3" style="mask-type:luminance" maskUnits="userSpaceOnUse" x="0" y="0" width="169" height="40">
<path d="M168.889 0.555555H0V39.4444H168.889V0.555555Z" fill="white"/>
</mask>
<g mask="url(#mask0_5_3)">
<path d="M29.7911 34.477C29.6126 34.5123 29.4274 34.4792 29.2716 34.3842C29.1158 34.2891 29.0002 34.1389 28.9472 33.9624L25.242 24.0362C24.9487 23.1574 24.3571 22.4129 23.5728 21.9351C22.7884 21.4574 21.8623 21.2776 20.9594 21.4276C20.4966 21.5082 20.0523 21.6751 19.6493 21.9197L9.40607 28.1437L9.14593 28.2434C9.01608 28.2656 8.88277 28.2534 8.75892 28.208L0.491978 25.0977C0.358486 25.0471 0.241773 24.9594 0.155284 24.8447C0.0687963 24.7299 0.0160497 24.5927 0.00312067 24.4488C-0.00980835 24.3049 0.0176061 24.1602 0.0822065 24.0314C0.146807 23.9027 0.245964 23.7951 0.36826 23.721L23.9827 9.5296C24.4118 9.27151 24.8837 9.09493 25.3752 9.00851C26.3297 8.8397 27.3122 9.02378 28.1441 9.52729C28.976 10.0308 29.602 10.8203 29.9084 11.7522L37.1761 33.3996C37.2121 33.5041 37.2248 33.6154 37.2132 33.7256C37.2017 33.8357 37.1663 33.9418 37.1096 34.0363C37.0542 34.1318 36.979 34.2138 36.8891 34.2766C36.7992 34.3393 36.6969 34.3814 36.5892 34.3999L29.7911 34.4739V34.477Z" fill="#049E76"/>
<path d="M26.0892 39.4303C25.9077 39.46 25.7218 39.4411 25.5498 39.3757L9.55846 33.3671C9.37303 33.2978 9.21073 33.1768 9.09034 33.0178C8.96996 32.8589 8.89638 32.6687 8.87813 32.4692C8.85988 32.2697 8.8977 32.069 8.98721 31.8903C9.07673 31.7117 9.21429 31.5624 9.38398 31.4597L21.0516 24.4219C21.163 24.3549 21.2855 24.3091 21.4132 24.2869C21.6598 24.2402 21.9148 24.2868 22.13 24.4178C22.345 24.5488 22.5053 24.755 22.5806 24.9977L26.9076 38.0408C26.9565 38.1849 26.974 38.3381 26.9586 38.4898C26.9432 38.6413 26.8955 38.7878 26.8187 38.9189C26.7407 39.0523 26.6351 39.1672 26.5092 39.2554C26.3832 39.3438 26.24 39.4034 26.0892 39.4303Z" fill="#049E76"/>
<path d="M36.8912 10.0928H43.3213L47.1376 22.6566C47.8386 24.9692 48.2098 26.5292 48.2098 26.5292H48.3049C48.3049 26.5292 48.6285 24.9692 49.3296 22.6566L53.2411 10.0928H59.5728L51.2362 34.3198H45.1772L36.8879 10.0928H36.8912Z" fill="white"/>
<path d="M71.2468 9.4813C64.2741 9.4813 61.1368 13.2092 60.9781 17.4519H66.5899C66.7802 15.1392 68.2395 14.0456 71.2182 14.0456C73.8798 14.0456 75.2121 15.2036 75.2121 16.9372C75.2121 18.7707 73.4039 19.1212 69.4418 19.6681C64.1156 20.44 59.8394 22.1416 59.8394 27.4778C59.8394 32.2994 63.2939 34.9016 68.176 34.9016C72.2968 34.9016 74.0067 33.4541 75.2121 31.6239H75.3074C75.4659 32.7176 75.688 33.8401 76.0687 34.3226H81.3315V18.4137C81.3315 12.7236 78.4479 9.47808 71.2531 9.47808L71.2468 9.4813ZM75.3676 25.7762C75.3676 28.1211 73.3405 30.4049 69.7241 30.4049C67.475 30.4049 65.984 29.6008 65.984 27.3202C65.984 25.0397 67.6336 24.2999 70.9296 23.5601C72.5157 23.1741 74.2256 22.7881 75.3676 22.1448V25.7762Z" fill="white"/>
<path d="M85.4058 0.555557H91.7409V34.3196H85.4058V0.555557Z" fill="white"/>
<path d="M94.759 22.2317C94.759 15.0073 99.8347 9.43631 107.239 9.43631C114.643 9.43631 119.722 15.0073 119.722 22.2317C119.722 29.456 114.645 35.0303 107.239 35.0303C99.8315 35.0303 94.759 29.456 94.759 22.2317ZM113.298 22.2317C113.298 17.5098 111.106 14.2964 107.239 14.2964C103.372 14.2964 101.183 17.5098 101.183 22.2317C101.183 26.9536 103.327 30.1187 107.239 30.1187C111.15 30.1187 113.298 26.9536 113.298 22.2317Z" fill="white"/>
<path d="M128.748 13.9652H128.888C130.334 11.2248 131.961 9.80951 134.757 9.80951C135.26 9.77996 135.765 9.84428 136.247 9.99928V15.6218H136.108C131.958 15.194 128.979 17.4134 128.979 22.518V34.3228H122.648V10.0926H128.748V13.9652Z" fill="white"/>
<path d="M138.991 10.0926H145.323V34.3196H138.991V10.0926ZM145.783 4.22885C145.783 4.95535 145.57 5.66555 145.172 6.26961C144.774 6.87368 144.209 7.34449 143.547 7.62251C142.884 7.90054 142.156 7.97328 141.453 7.83155C140.751 7.68981 140.106 7.33997 139.599 6.82625C139.092 6.31252 138.747 5.65801 138.607 4.94547C138.467 4.23291 138.539 3.49435 138.813 2.82314C139.088 2.15194 139.551 1.57825 140.148 1.17461C140.743 0.770992 141.443 0.555557 142.16 0.555557C143.121 0.555557 144.042 0.942563 144.722 1.63144C145.401 2.32031 145.783 3.25462 145.783 4.22885Z" fill="white"/>
<path d="M148.629 29.4081L160.928 15.2874V15.146H150.028V10.0928H168.283V15.2392L156.268 29.0318V29.1732H168.89V34.3198H148.629V29.4081Z" fill="white"/>
</g>
</g>
<defs>
<clipPath id="clip0_5_3">
<rect width="168.889" height="40" fill="white"/>
</clipPath>
</defs>
</svg>
