<svg width="49" height="48" viewBox="0 0 49 48" fill="none" xmlns="http://www.w3.org/2000/svg">
<path d="M34.0982 15.9928C34.0982 18.127 30.8978 18.127 30.8978 15.9928C30.8978 13.8585 34.0982 13.8585 34.0982 15.9928Z" fill="url(#paint0_linear_322_143)"/>
<path d="M9.3982 27.1608L8.39807 28.2888C5.87903 31.1293 4.49445 34.7759 4.49445 38.5505V39.1911C4.49445 41.4003 6.28532 43.1908 8.49496 43.1908H9.13567C12.9112 43.1908 16.5616 41.8065 19.3994 39.288L20.5277 38.288L29.7697 47.5282C30.0666 47.825 30.4823 48 30.9073 48C36.1955 48 40.499 43.6878 40.499 38.4007V26.264L43.9401 22.8236C46.878 19.8863 48.5 15.9772 48.5 11.8148V5.5996C48.5 2.5123 45.9872 0 42.8993 0H36.6829C32.523 0 28.6195 1.61548 25.6815 4.55903L22.2404 7.99943H10.1012C4.81303 7.99943 0.509601 12.3022 0.5 17.5891C0.5 18.0141 0.668774 18.4297 0.971933 18.7328L9.41382 27.173L9.3982 27.1608ZM16.9523 37.1912C14.7833 38.9818 12.1423 39.9504 9.32003 39.991L7.67294 40.016L7.69794 38.3693C7.73857 35.5445 8.70743 32.9072 10.4983 30.7385L11.6172 29.3793L18.3149 36.0757L16.9554 37.1943L16.9523 37.1912ZM37.2989 38.3912C37.2989 41.3285 35.3142 43.872 32.4733 44.6001L31.5919 44.8251L28.3666 41.594C27.9415 41.169 27.704 40.6034 27.704 39.9941C27.704 39.3848 27.9352 38.8255 28.3666 38.3942L37.3053 29.4573V38.3942L37.2989 38.3912ZM27.9385 6.81822C30.2763 4.48086 33.3798 3.19352 36.6836 3.19352H42.9C44.2189 3.19352 45.3003 4.27472 45.3003 5.59334V11.8085C45.3003 15.1114 44.0126 18.2174 41.6749 20.5519L26.0977 36.126C25.9789 36.2447 25.857 36.3822 25.7539 36.5103L24.635 37.854L10.6332 23.855L11.9772 22.7363C12.1147 22.6238 12.2397 22.5114 12.3616 22.3926L27.9476 6.80972L27.9385 6.81822ZM3.88581 16.024C4.60466 13.1835 7.15807 11.193 10.096 11.193H19.0347L10.096 20.13C9.68029 20.5456 9.09584 20.7862 8.49576 20.7862C7.89569 20.7862 7.31121 20.5456 6.89556 20.13L3.67018 16.9053L3.89521 16.024L3.88581 16.024Z" fill="url(#paint1_linear_322_143)"/>
<defs>
<linearGradient id="paint0_linear_322_143" x1="24.5" y1="0" x2="24.5" y2="48" gradientUnits="userSpaceOnUse">
<stop stop-color="#049E76"/>
<stop offset="1" stop-color="white"/>
</linearGradient>
<linearGradient id="paint1_linear_322_143" x1="24.5" y1="0" x2="24.5" y2="48" gradientUnits="userSpaceOnUse">
<stop stop-color="#049E76"/>
<stop offset="1" stop-color="white"/>
</linearGradient>
</defs>
</svg>
