<svg width="56" height="56" viewBox="0 0 56 56" fill="none" xmlns="http://www.w3.org/2000/svg">
<path d="M28.0165 36.2489C31.8142 36.2489 34.9138 33.1771 34.9138 29.4135C34.9138 25.6499 31.8142 22.5781 28.0165 22.5781C24.2188 22.5781 21.1192 25.6499 21.1192 29.4135C21.1192 33.1771 24.2188 36.2489 28.0165 36.2489ZM28.0165 25.0531C30.4414 25.0531 32.414 27.0104 32.414 29.4111C32.414 31.8142 30.439 33.7691 28.0165 33.7691C25.5916 33.7691 23.619 31.8118 23.619 29.4111C23.619 27.008 25.594 25.0531 28.0165 25.0531Z" fill="url(#paint0_linear_91_1978)"/>
<path d="M41.3355 34.3171C44.6085 34.3171 47.2582 31.6912 47.2582 28.4476C47.2582 25.2041 44.6085 22.5781 41.3355 22.5781C38.0626 22.5781 35.4128 25.2041 35.4128 28.4476C35.4128 31.6912 38.0626 34.3171 41.3355 34.3171ZM41.3355 25.0531C43.2356 25.0531 44.7584 26.5646 44.7584 28.4452C44.7584 30.3282 43.2332 31.8374 41.3355 31.8374C39.4355 31.8374 37.9127 30.3259 37.9127 28.4452C37.9127 26.5622 39.4379 25.0531 41.3355 25.0531Z" fill="url(#paint1_linear_91_1978)"/>
<path d="M41.3355 35.5546C38.161 35.5546 35.1621 36.9919 33.1637 39.3926C31.5893 38.6983 29.865 38.2781 28.0165 38.2781C26.168 38.2781 24.4179 38.6983 22.8177 39.4181C20.7935 37.0406 17.8204 35.6034 14.6459 35.6034C8.77235 35.6034 4 40.3329 4 46.1537C4 46.8479 4.55057 47.3912 5.24872 47.3912C5.94924 47.3912 6.49743 46.8455 6.49743 46.1537C6.49743 41.6958 10.1452 38.0808 14.6435 38.0808C16.9184 38.0808 19.041 39.0722 20.592 40.7067C17.469 42.9844 15.3932 46.625 15.3932 50.7625C15.3932 51.4567 15.9438 52 16.6419 52C17.3424 52 17.8906 51.4544 17.8906 50.7625C17.8906 45.2389 22.4381 40.7323 28.0117 40.7323C33.5853 40.7323 38.1328 45.2389 38.1328 50.7625C38.1328 51.4567 38.6833 52 39.3815 52C40.082 52 40.6302 51.4544 40.6302 50.7625C40.6302 46.6018 38.5568 42.9357 35.408 40.6836C36.9332 39.049 39.0816 38.0344 41.3565 38.0344C45.8548 38.0344 49.5026 41.6494 49.5026 46.1073C49.5026 46.8015 50.0531 47.3448 50.7513 47.3448C51.4518 47.3448 52 46.7992 52 46.1073C52 40.2865 47.2276 35.557 41.3541 35.557L41.3355 35.5546Z" fill="url(#paint2_linear_91_1978)"/>
<path d="M14.6459 34.3659C17.9188 34.3659 20.5686 31.7399 20.5686 28.4964C20.5686 25.2528 17.9188 22.6268 14.6459 22.6268C11.3729 22.6268 8.72317 25.2528 8.72317 28.4964C8.72317 31.7399 11.3729 34.3659 14.6459 34.3659ZM14.6459 25.1042C16.5201 25.1042 18.0687 26.6157 18.0687 28.4964C18.0687 30.3794 16.5435 31.8885 14.6459 31.8885C12.7458 31.8885 11.223 30.377 11.223 28.4964C11.223 26.6134 12.7482 25.1042 14.6459 25.1042Z" fill="url(#paint3_linear_91_1978)"/>
<path d="M25.0668 20.6951C24.8677 20.6951 24.6662 20.6463 24.5163 20.521C24.2164 20.3236 24.0922 19.9521 24.1414 19.6038L24.617 16.8293L22.5928 14.872C22.3421 14.6235 22.2437 14.252 22.3679 13.9316C22.4686 13.5857 22.7685 13.3628 23.1176 13.2885L25.9173 12.8915L27.166 10.3654C27.316 10.0426 27.6416 9.84528 28.0165 9.84528C28.3656 9.84528 28.6912 10.0426 28.867 10.3654L30.1157 12.8915L32.9154 13.2885C33.2645 13.3373 33.5643 13.5857 33.6651 13.9316C33.7658 14.2776 33.6651 14.6259 33.4402 14.872L31.416 16.8293L31.8916 19.6038C31.9408 19.9498 31.8166 20.2981 31.5167 20.521C31.2168 20.7183 30.842 20.7694 30.5163 20.5953L28.0165 19.2835L25.5166 20.5953C25.3925 20.6696 25.2168 20.6951 25.0926 20.6951H25.0668ZM25.266 14.8743L26.2898 15.8657C26.5147 16.0886 26.6154 16.3858 26.5639 16.683L26.3132 18.0691L27.5619 17.426C27.836 17.2774 28.1617 17.2774 28.4358 17.426L29.6845 18.0691L29.4338 16.683C29.3846 16.3858 29.483 16.0631 29.7079 15.8657L30.7317 14.8743L29.3331 14.677C29.0332 14.6282 28.7591 14.4541 28.6325 14.1569L28.007 12.8938L27.3814 14.1569C27.2573 14.4285 26.9808 14.6282 26.6809 14.677L25.2822 14.8743H25.266Z" fill="url(#paint4_linear_91_1978)"/>
<path d="M37.6362 19.0118C37.6362 19.0118 37.437 19.0118 37.3363 18.963L34.0118 17.823C33.5127 17.6489 33.2621 17.1288 33.4378 16.6343C33.6135 16.1397 34.1383 15.8913 34.6373 16.0654L37.9618 17.2054C38.4608 17.3796 38.7115 17.8997 38.5358 18.3942C38.4117 18.7912 38.0368 19.0141 37.662 19.0141L37.6362 19.0118Z" fill="url(#paint5_linear_91_1978)"/>
<path d="M33.3886 11.9535C33.1145 11.9535 32.8146 11.8305 32.6389 11.582C32.339 11.1618 32.414 10.5906 32.838 10.2934L35.6611 8.23863C36.0618 7.94144 36.6616 8.01574 36.9614 8.43598C37.2613 8.85623 37.1864 9.42741 36.7623 9.7246L33.9392 11.7794C33.7635 11.9024 33.5901 11.9535 33.3886 11.9535Z" fill="url(#paint6_linear_91_1978)"/>
<path d="M27.9415 9.32754C27.4425 9.32754 27.0161 8.93051 26.9927 8.43597L26.8685 4.96953C26.8685 4.44945 27.2691 4.02922 27.7682 4.00366C28.3422 3.9549 28.717 4.40069 28.7428 4.89523L28.867 8.36167C28.867 8.88175 28.4663 9.30198 27.9673 9.32754H27.9415Z" fill="url(#paint7_linear_91_1978)"/>
<path d="M22.6678 12.2994C22.4921 12.2994 22.3187 12.2507 22.1687 12.1509L19.2191 10.2679C18.795 9.9962 18.6685 9.42502 18.945 8.97923C19.2191 8.55899 19.8188 8.43361 20.2453 8.70758L23.1949 10.5906C23.619 10.8622 23.7455 11.4334 23.469 11.8792C23.2933 12.1509 22.9934 12.2994 22.6701 12.2994H22.6678Z" fill="url(#paint8_linear_91_1978)"/>
<path d="M18.8934 19.6062C18.5186 19.6062 18.1695 19.3833 18.0196 19.0373C17.8204 18.566 18.0196 18.0227 18.5186 17.823L21.7681 16.4857C22.2437 16.2883 22.7919 16.5112 22.9935 16.9802C23.1926 17.4515 22.9935 17.9948 22.4944 18.1945L19.2449 19.5319C19.2449 19.5319 18.9942 19.6062 18.8958 19.6062H18.8934Z" fill="url(#paint9_linear_91_1978)"/>
<defs>
<linearGradient id="paint0_linear_91_1978" x1="28" y1="4" x2="28" y2="52" gradientUnits="userSpaceOnUse">
<stop stop-color="#049E76"/>
<stop offset="1" stop-color="white"/>
</linearGradient>
<linearGradient id="paint1_linear_91_1978" x1="28" y1="4" x2="28" y2="52" gradientUnits="userSpaceOnUse">
<stop stop-color="#049E76"/>
<stop offset="1" stop-color="white"/>
</linearGradient>
<linearGradient id="paint2_linear_91_1978" x1="28" y1="4" x2="28" y2="52" gradientUnits="userSpaceOnUse">
<stop stop-color="#049E76"/>
<stop offset="1" stop-color="white"/>
</linearGradient>
<linearGradient id="paint3_linear_91_1978" x1="28" y1="4" x2="28" y2="52" gradientUnits="userSpaceOnUse">
<stop stop-color="#049E76"/>
<stop offset="1" stop-color="white"/>
</linearGradient>
<linearGradient id="paint4_linear_91_1978" x1="28" y1="4" x2="28" y2="52" gradientUnits="userSpaceOnUse">
<stop stop-color="#049E76"/>
<stop offset="1" stop-color="white"/>
</linearGradient>
<linearGradient id="paint5_linear_91_1978" x1="28" y1="4" x2="28" y2="52" gradientUnits="userSpaceOnUse">
<stop stop-color="#049E76"/>
<stop offset="1" stop-color="white"/>
</linearGradient>
<linearGradient id="paint6_linear_91_1978" x1="28" y1="4" x2="28" y2="52" gradientUnits="userSpaceOnUse">
<stop stop-color="#049E76"/>
<stop offset="1" stop-color="white"/>
</linearGradient>
<linearGradient id="paint7_linear_91_1978" x1="28" y1="4" x2="28" y2="52" gradientUnits="userSpaceOnUse">
<stop stop-color="#049E76"/>
<stop offset="1" stop-color="white"/>
</linearGradient>
<linearGradient id="paint8_linear_91_1978" x1="28" y1="4" x2="28" y2="52" gradientUnits="userSpaceOnUse">
<stop stop-color="#049E76"/>
<stop offset="1" stop-color="white"/>
</linearGradient>
<linearGradient id="paint9_linear_91_1978" x1="28" y1="4" x2="28" y2="52" gradientUnits="userSpaceOnUse">
<stop stop-color="#049E76"/>
<stop offset="1" stop-color="white"/>
</linearGradient>
</defs>
</svg>
