<svg width="46" height="46" viewBox="0 0 46 46" fill="none" xmlns="http://www.w3.org/2000/svg">
<path d="M16.9958 19.1806L25.7406 27.9305C26.0101 28.2001 26.4082 28.3589 26.8214 28.3589C27.2346 28.3589 27.6328 28.2061 27.9022 27.9305C28.1926 27.6399 28.3543 27.2565 28.3543 26.8401C28.3543 26.4267 28.1926 26.0433 27.9022 25.7587L19.1574 17.0088V11.494C19.1574 7.62973 17.6546 3.9932 14.9182 1.26409C14.1129 0.458275 13.0111 0 11.8765 0C10.7418 0 9.63109 0.461312 8.83471 1.26409L1.26336 8.83983C0.45801 9.64565 0 10.748 0 11.8833C0 13.0187 0.44308 14.1151 1.26336 14.9269C3.99073 17.6558 7.62523 19.1685 11.4874 19.1685H16.999L16.9958 19.1806ZM3.51149 12.854C3.25103 12.6084 3.10433 12.2699 3.09835 11.9104C3.09835 11.551 3.23008 11.2125 3.48155 10.9608L10.9451 3.4929C11.1966 3.24127 11.52 3.11845 11.8942 3.10947C12.2535 3.10947 12.5828 3.26224 12.8373 3.52285C14.9359 5.74552 16.0945 8.6602 16.0945 11.7214V16.1158H11.4871C8.5681 16.1158 5.79283 15.0105 3.6704 13.0094L3.51771 12.8627L3.51149 12.854Z" fill="url(#paint0_linear_322_85)"/>
<path d="M29.3029 11.581C28.5216 11.9046 28.1533 12.8093 28.4767 13.5821C28.8 14.3639 29.6951 14.7324 30.4765 14.4088C35.09 12.4917 39.114 12.6145 41.2301 14.7234C42.9635 16.4578 43.3767 19.5312 42.3708 23.1681C41.275 27.1012 38.5926 31.421 34.997 35.0153C31.4014 38.6129 27.0876 41.3029 23.1567 42.3933C19.5251 43.3968 16.4505 42.9834 14.7169 41.252C12.6003 39.1342 12.4865 35.1081 14.4025 30.4922C14.7259 29.7104 14.3576 28.8117 13.5762 28.4911C13.3936 28.4133 13.193 28.3773 12.9925 28.3773C12.3638 28.3773 11.8129 28.7458 11.5734 29.3209C9.12742 35.2192 9.48963 40.3568 12.5553 43.4243C15.106 45.9764 19.2525 46.6595 23.9826 45.3504C28.4733 44.1012 33.1558 41.2015 37.1733 37.1848C41.1881 33.1678 44.086 28.4794 45.3341 23.9864C46.6664 19.1846 45.9868 15.1284 43.4091 12.5525C40.3435 9.48508 35.2092 9.12558 29.314 11.57L29.3029 11.581Z" fill="url(#paint1_linear_322_85)"/>
<defs>
<linearGradient id="paint0_linear_322_85" x1="23" y1="0" x2="23" y2="46" gradientUnits="userSpaceOnUse">
<stop stop-color="#049E76"/>
<stop offset="1" stop-color="white"/>
</linearGradient>
<linearGradient id="paint1_linear_322_85" x1="23" y1="0" x2="23" y2="46" gradientUnits="userSpaceOnUse">
<stop stop-color="#049E76"/>
<stop offset="1" stop-color="white"/>
</linearGradient>
</defs>
</svg>
