<svg width="100" height="50" viewBox="0 0 100 50" fill="none" xmlns="http://www.w3.org/2000/svg">
<path d="M47.8267 44.7615C45.424 39.5476 40.3571 27.2541 39.3105 19.791" stroke="#049E76"/>
<circle cx="39.1951" cy="18.8095" r="1.87659" transform="rotate(-6.73702 39.1951 18.8095)" fill="#049E76"/>
<path d="M43.0072 32.1411C37.3265 31.3121 31.559 29.7606 24.7324 26.5684" stroke="#049E76"/>
<circle cx="25.4651" cy="26.4405" r="1.87659" transform="rotate(-63.6929 25.4651 26.4405)" fill="#049E76"/>
<path d="M42.0672 29.837C38.0221 25.7633 34.3414 21.0598 30.7988 14.4082" stroke="#049E76"/>
<circle cx="31.4644" cy="14.7452" r="1.87659" transform="rotate(-26.7939 31.4644 14.7452)" fill="#049E76"/>
<path d="M38.1925 25.1139C32.5087 24.3067 26.7353 22.7774 19.8965 19.6113" stroke="#049E76"/>
<circle cx="20.6298" cy="19.4777" r="1.87659" transform="rotate(-63.9128 20.6298 19.4777)" fill="#049E76"/>
<path d="M26.8994 22.5253C21.1592 22.6108 15.2183 21.9969 7.9707 19.9316" stroke="#049E76"/>
<circle cx="8.67269" cy="19.688" r="1.87659" transform="rotate(-72.8493 8.67269 19.688)" fill="#049E76"/>
<path d="M34.2537 20.5929C28.963 18.3645 23.7696 15.415 17.9629 10.6113" stroke="#049E76"/>
<circle cx="18.7036" cy="10.669" r="1.87659" transform="rotate(-49.1552 18.7036 10.669)" fill="#049E76"/>
<path d="M24.8675 15.4738C19.2345 14.3667 13.5502 12.5336 6.88867 9.00977" stroke="#049E76"/>
<circle cx="7.62883" cy="8.91658" r="1.87659" transform="rotate(-60.8761 7.62883 8.91658)" fill="#049E76"/>
<path d="M21.9416 15.1803C16.2038 15.3656 10.2531 14.855 2.9707 12.916" stroke="#049E76"/>
<circle cx="3.67032" cy="12.6591" r="1.87659" transform="rotate(-73.8452 3.67032 12.6591)" fill="#049E76"/>
<path d="M52.478 43.7615C54.8807 38.5476 59.9476 26.2541 60.9941 18.791" stroke="#049E76"/>
<circle cx="1.87659" cy="1.87659" r="1.87659" transform="matrix(-0.993095 -0.117312 -0.117312 0.993095 63.1934 16.166)" fill="#049E76"/>
<path d="M57.3014 31.1411C62.9821 30.3121 68.7496 28.7606 75.5762 25.5684" stroke="#049E76"/>
<circle cx="1.87659" cy="1.87659" r="1.87659" transform="matrix(-0.443182 -0.896432 -0.896432 0.443182 77.3574 26.291)" fill="#049E76"/>
<path d="M58.2414 28.837C62.2865 24.7633 65.9672 20.0598 69.5098 13.4082" stroke="#049E76"/>
<circle cx="1.87659" cy="1.87659" r="1.87659" transform="matrix(-0.892634 -0.450783 -0.450783 0.892634 71.3652 12.916)" fill="#049E76"/>
<path d="M62.1161 24.1139C67.7999 23.3067 73.5733 21.7774 80.4121 18.6113" stroke="#049E76"/>
<circle cx="1.87659" cy="1.87659" r="1.87659" transform="matrix(-0.439739 -0.898125 -0.898125 0.439739 82.1895 19.3379)" fill="#049E76"/>
<path d="M73.4131 21.5253C79.1533 21.6108 85.0942 20.9969 92.3418 18.9316" stroke="#049E76"/>
<circle cx="1.87659" cy="1.87659" r="1.87659" transform="matrix(-0.294886 -0.955532 -0.955532 0.294886 93.9863 19.9277)" fill="#049E76"/>
<path d="M66.0588 19.589C71.3495 17.3606 76.5429 14.4111 82.3496 9.60742" stroke="#049E76"/>
<circle cx="1.87659" cy="1.87659" r="1.87659" transform="matrix(-0.654012 -0.756484 -0.756484 0.654012 84.252 9.86133)" fill="#049E76"/>
<path d="M75.4411 14.4738C81.0741 13.3667 86.7584 11.5336 93.4199 8.00977" stroke="#049E76"/>
<circle cx="1.87659" cy="1.87659" r="1.87659" transform="matrix(-0.486699 -0.87357 -0.87357 0.486699 95.2324 8.64258)" fill="#049E76"/>
<path d="M78.367 14.1803C84.1048 14.3656 90.0555 13.855 97.3379 11.916" stroke="#049E76"/>
<circle cx="1.87659" cy="1.87659" r="1.87659" transform="matrix(-0.278233 -0.960514 -0.960514 0.278233 98.9629 12.9395)" fill="#049E76"/>
</svg>
