<svg width="68" height="45" viewBox="0 0 68 45" fill="none" xmlns="http://www.w3.org/2000/svg">
<path d="M32.7837 41.117C30.381 35.9031 25.3141 23.6096 24.2676 16.1465" stroke="#049E76"/>
<circle cx="24.1521" cy="15.165" r="1.87659" transform="rotate(-6.73702 24.1521 15.165)" fill="#049E76"/>
<path d="M27.9642 28.4966C22.2836 27.6676 16.5161 26.1161 9.68945 22.9238" stroke="#049E76"/>
<circle cx="10.4221" cy="22.7959" r="1.87659" transform="rotate(-63.6929 10.4221 22.7959)" fill="#049E76"/>
<path d="M27.032 26.1964C22.987 22.1227 19.3062 17.4192 15.7637 10.7676" stroke="#049E76"/>
<circle cx="16.4253" cy="11.1046" r="1.87659" transform="rotate(-26.7939 16.4253 11.1046)" fill="#049E76"/>
<path d="M23.1456 21.4733C17.4618 20.6661 11.6884 19.1368 4.84961 15.9707" stroke="#049E76"/>
<circle cx="5.58288" cy="15.8371" r="1.87659" transform="rotate(-63.9128 5.58288 15.8371)" fill="#049E76"/>
<path d="M19.2068 16.9445C13.9161 14.7161 8.72275 11.7665 2.91602 6.96289" stroke="#049E76"/>
<circle cx="3.66059" cy="7.0245" r="1.87659" transform="rotate(-49.1552 3.66059 7.0245)" fill="#049E76"/>
<path d="M35.6577 41.117C38.0604 35.9031 43.1273 23.6096 44.1738 16.1465" stroke="#049E76"/>
<circle cx="1.87659" cy="1.87659" r="1.87659" transform="matrix(-0.993095 -0.117312 -0.117312 0.993095 46.373 13.5215)" fill="#049E76"/>
<path d="M40.4811 28.4966C46.1617 27.6676 51.9292 26.1161 58.7559 22.9238" stroke="#049E76"/>
<circle cx="1.87659" cy="1.87659" r="1.87659" transform="matrix(-0.443182 -0.896432 -0.896432 0.443182 60.5332 23.6465)" fill="#049E76"/>
<path d="M41.4094 26.1964C45.4544 22.1227 49.1352 17.4192 52.6777 10.7676" stroke="#049E76"/>
<circle cx="1.87659" cy="1.87659" r="1.87659" transform="matrix(-0.892634 -0.450783 -0.450783 0.892634 54.5371 10.2754)" fill="#049E76"/>
<path d="M45.2958 21.4733C50.9796 20.6661 56.753 19.1368 63.5918 15.9707" stroke="#049E76"/>
<circle cx="1.87659" cy="1.87659" r="1.87659" transform="matrix(-0.439739 -0.898125 -0.898125 0.439739 65.3691 16.6973)" fill="#049E76"/>
<path d="M49.2346 16.9445C54.5253 14.7161 59.7187 11.7665 65.5254 6.96289" stroke="#049E76"/>
<circle cx="1.87659" cy="1.87659" r="1.87659" transform="matrix(-0.654012 -0.756484 -0.756484 0.654012 67.4277 7.2168)" fill="#049E76"/>
</svg>
