<svg width="60" height="38" viewBox="0 0 60 38" fill="none" xmlns="http://www.w3.org/2000/svg">
<path d="M27.0785 34.8667C24.5785 29.6988 19.282 17.5025 18.0957 10.0603" stroke="#049E76"/>
<circle cx="17.9638" cy="9.0824" r="1.87659" transform="rotate(-7.81125 17.9638 9.0824)" fill="#049E76"/>
<path d="M23.2564 26.5658C17.5232 26.271 11.636 25.2651 4.54102 22.7244" stroke="#049E76"/>
<circle cx="5.25745" cy="22.5255" r="1.87659" transform="rotate(-69.0523 5.25745 22.5255)" fill="#049E76"/>
<path d="M21.0458 20.0564C16.9251 16.0593 13.1569 11.4256 9.49023 4.84155" stroke="#049E76"/>
<circle cx="10.1592" cy="5.16628" r="1.87659" transform="rotate(-27.8681 10.1592 5.16628)" fill="#049E76"/>
<path d="M21.7421 21.7553C16.2064 20.2343 10.6734 17.9855 4.29102 13.9783" stroke="#049E76"/>
<circle cx="5.03494" cy="13.9393" r="1.87659" transform="rotate(-56.6315 5.03494 13.9393)" fill="#049E76"/>
<path d="M33.4214 35.1206C35.824 29.9068 40.891 17.6133 41.9375 10.1501" stroke="#049E76"/>
<circle cx="1.87659" cy="1.87659" r="1.87659" transform="matrix(-0.993095 -0.117312 -0.117312 0.993095 44.1367 7.52515)" fill="#049E76"/>
<path d="M37.0904 26.7481C42.8171 26.3458 48.6844 25.2297 55.7305 22.5564" stroke="#049E76"/>
<circle cx="1.87659" cy="1.87659" r="1.87659" transform="matrix(-0.374962 -0.92704 -0.92704 0.374962 57.4531 23.408)" fill="#049E76"/>
<path d="M39.1809 20.2C43.2259 16.1264 46.9067 11.4228 50.4492 4.77124" stroke="#049E76"/>
<circle cx="1.87659" cy="1.87659" r="1.87659" transform="matrix(-0.892634 -0.450783 -0.450783 0.892634 52.3047 4.27905)" fill="#049E76"/>
<path d="M38.5064 21.9054C44.0125 20.2808 49.5024 17.9287 55.8086 13.8025" stroke="#049E76"/>
<circle cx="1.87659" cy="1.87659" r="1.87659" transform="matrix(-0.565582 -0.824692 -0.824692 0.565582 57.6758 14.2673)" fill="#049E76"/>
</svg>
