<svg width="85" height="46" viewBox="0 0 85 46" fill="none" xmlns="http://www.w3.org/2000/svg">
<path d="M40.9517 41.7618C38.549 36.5479 33.4821 24.2544 32.4355 16.7913" stroke="#049E76"/>
<circle cx="32.3201" cy="15.8097" r="1.87659" transform="rotate(-6.73702 32.3201 15.8097)" fill="#049E76"/>
<path d="M36.1283 29.1413C30.4476 28.3123 24.6801 26.7609 17.8535 23.5686" stroke="#049E76"/>
<circle cx="18.5901" cy="23.4407" r="1.87659" transform="rotate(-63.6929 18.5901 23.4407)" fill="#049E76"/>
<path d="M35.2 26.8411C31.1549 22.7675 27.4742 18.0639 23.9316 11.4124" stroke="#049E76"/>
<circle cx="24.5933" cy="11.7493" r="1.87659" transform="rotate(-26.7939 24.5933 11.7493)" fill="#049E76"/>
<path d="M31.3175 22.1181C25.6337 21.3109 19.8603 19.7815 13.0215 16.6155" stroke="#049E76"/>
<circle cx="13.7548" cy="16.4818" r="1.87659" transform="rotate(-63.9128 13.7548 16.4818)" fill="#049E76"/>
<path d="M27.3748 17.5893C22.0841 15.3609 16.8907 12.4113 11.084 7.60767" stroke="#049E76"/>
<circle cx="11.8286" cy="7.66927" r="1.87659" transform="rotate(-49.1552 11.8286 7.66927)" fill="#049E76"/>
<path d="M20.9925 14.4741C15.3595 13.3669 9.67517 11.5339 3.01367 8.01001" stroke="#049E76"/>
<circle cx="3.75383" cy="7.91683" r="1.87659" transform="rotate(-60.8761 3.75383 7.91683)" fill="#049E76"/>
<path d="M43.9976 41.8321C46.4002 36.6182 51.4671 24.3247 52.5137 16.8616" stroke="#049E76"/>
<circle cx="1.87659" cy="1.87659" r="1.87659" transform="matrix(-0.993095 -0.117312 -0.117312 0.993095 54.7129 14.2366)" fill="#049E76"/>
<path d="M48.8209 29.2117C54.5016 28.3826 60.2691 26.8312 67.0957 23.6389" stroke="#049E76"/>
<circle cx="1.87659" cy="1.87659" r="1.87659" transform="matrix(-0.443182 -0.896432 -0.896432 0.443182 68.873 24.3616)" fill="#049E76"/>
<path d="M49.7492 26.9115C53.7943 22.8378 57.475 18.1342 61.0176 11.4827" stroke="#049E76"/>
<circle cx="1.87659" cy="1.87659" r="1.87659" transform="matrix(-0.892634 -0.450783 -0.450783 0.892634 62.877 10.9905)" fill="#049E76"/>
<path d="M53.6317 22.1884C59.3155 21.3812 65.0889 19.8518 71.9277 16.6858" stroke="#049E76"/>
<circle cx="1.87659" cy="1.87659" r="1.87659" transform="matrix(-0.439739 -0.898125 -0.898125 0.439739 73.7051 17.4124)" fill="#049E76"/>
<path d="M57.5744 17.6596C62.8651 15.4312 68.0585 12.4816 73.8652 7.67798" stroke="#049E76"/>
<circle cx="1.87659" cy="1.87659" r="1.87659" transform="matrix(-0.654012 -0.756484 -0.756484 0.654012 75.7676 7.93188)" fill="#049E76"/>
<path d="M63.9567 14.5444C69.5898 13.4372 75.2741 11.6042 81.9355 8.08032" stroke="#049E76"/>
<circle cx="1.87659" cy="1.87659" r="1.87659" transform="matrix(-0.486699 -0.87357 -0.87357 0.486699 83.748 8.71313)" fill="#049E76"/>
</svg>
