<svg width="33" height="36" viewBox="0 0 33 36" fill="none" xmlns="http://www.w3.org/2000/svg">
<path d="M15.3307 35.7092C13.5563 30.2495 9.96652 17.4465 9.80273 9.91211" stroke="#049E76"/>
<circle cx="9.80042" cy="8.92542" r="1.87659" fill="#049E76"/>
<path d="M16.9232 34.7092C18.6976 29.2495 22.2874 16.4465 22.4512 8.91211" stroke="#049E76"/>
<circle cx="1.87659" cy="1.87659" r="1.87659" transform="matrix(-1 0 0 1 24.3262 6.04883)" fill="#049E76"/>
<path d="M21.1917 19.2164C24.731 14.6964 27.8345 9.59351 30.5723 2.57227" stroke="#049E76"/>
<circle cx="1.87659" cy="1.87659" r="1.87659" transform="matrix(-0.939353 -0.342953 -0.342953 0.939353 32.3574 1.86523)" fill="#049E76"/>
<path d="M11.3591 20.2164C7.81983 15.6964 4.7163 10.5935 1.97852 3.57227" stroke="#049E76"/>
<circle cx="2.59972" cy="3.98443" r="1.87659" transform="rotate(-20.0569 2.59972 3.98443)" fill="#049E76"/>
</svg>
