<svg width="40" height="40" viewBox="0 0 40 40" fill="none" xmlns="http://www.w3.org/2000/svg">
<path d="M22.7387 24.5346C22.7387 19.5856 24.3724 15.0451 27.6396 10.913C29.7057 8.41446 31.3634 7.33338 32.6126 7.66972C33.7658 8.10215 34.3423 8.7508 34.3423 9.61567C34.3423 10.4325 33.958 11.2973 33.1892 12.2103C32.4685 13.1232 31.8919 13.8679 31.4595 14.4445C31.027 15.0211 30.6667 15.6457 30.3784 16.3184C29.7057 17.6637 29.3694 19.2973 29.3694 21.2193C30.5225 20.8829 31.6757 21.0271 32.8288 21.6517C34.9429 22.8529 36 24.3904 36 26.2643C36 28.0901 35.4234 29.5796 34.2703 30.7328C33.1652 31.8379 31.6276 32.3904 29.6577 32.3904C27.6877 32.3904 26.03 31.6457 24.6847 30.1562C23.3874 28.6187 22.7387 26.7448 22.7387 24.5346ZM4 24.5346C4 19.3934 5.60961 14.8529 8.82883 10.913C11.2793 7.98203 13.3213 7.09314 14.955 8.2463C15.2913 8.48654 15.4595 8.87092 15.4595 9.39945C15.4595 10.3604 15.0991 11.2973 14.3784 12.2103C13.7057 13.1232 13.1532 13.8679 12.7207 14.4445C12.2883 15.0211 11.9279 15.6457 11.6396 16.3184C10.967 17.6637 10.6306 19.2973 10.6306 21.2193C11.7838 20.8829 12.9129 21.0271 14.018 21.6517C16.0841 22.8529 17.1171 24.3904 17.1171 26.2643C17.1171 28.0901 16.5646 29.5796 15.4595 30.7328C14.3544 31.8379 12.8168 32.3904 10.8468 32.3904C8.87688 32.3904 7.24324 31.6457 5.94595 30.1562C4.64865 28.6187 4 26.7448 4 24.5346Z" fill="#049E76"/>
</svg>
