<svg width="56" height="57" viewBox="0 0 56 57" fill="none" xmlns="http://www.w3.org/2000/svg">
<path d="M27.9961 21.0333C33.6617 21.0333 38.2627 16.4323 38.2627 10.7667C38.2627 5.10105 33.6617 0.5 27.9961 0.5C22.3305 0.5 17.7294 5.10105 17.7294 10.7667C17.7294 16.4323 22.3305 21.0333 27.9961 21.0333ZM27.9961 4.23333C31.5982 4.23333 34.5294 7.16456 34.5294 10.7667C34.5294 14.3688 31.5982 17.3 27.9961 17.3C24.394 17.3 21.4627 14.3688 21.4627 10.7667C21.4627 7.16456 24.394 4.23333 27.9961 4.23333Z" fill="url(#paint0_linear_476_64)"/>
<path d="M50.9831 44.3779L49.4519 43.1747L50.7134 41.7018C52.3102 39.8351 53.1853 37.4727 53.1853 35.0482C53.1853 29.3826 48.5842 24.7815 42.9186 24.7815C37.253 24.7815 32.6519 29.3826 32.6519 35.0482C32.6519 37.4836 33.5306 39.8461 35.1238 41.7127L36.3925 43.1965L34.8613 44.3997C32.6592 46.1279 31.0989 48.4393 30.3551 51.0826C30.0744 52.0888 29.1046 52.7888 27.9926 52.7888C26.8807 52.7888 25.9217 52.0888 25.6302 51.0826C24.8755 48.4321 23.315 46.1279 21.1239 44.3997L19.5927 43.1965L20.8615 41.7127C22.4583 39.857 23.3333 37.4836 23.3333 35.0482C23.3333 29.3826 18.7323 24.7815 13.0667 24.7815C7.40105 24.7815 2.8 29.3826 2.8 35.0482C2.8 37.4836 3.67865 39.8461 5.27184 41.7018L6.53333 43.1747L5.00211 44.3779C1.81925 46.8789 0 50.6232 0 54.6333C0 55.6615 0.838544 56.5 1.86667 56.5C2.89483 56.5 3.73333 55.6615 3.73333 54.6333C3.73333 49.4891 7.92241 45.3 13.0667 45.3C17.2193 45.3 20.9162 48.0891 22.0464 52.0776C22.7828 54.6807 25.2401 56.5 28 56.5C30.7635 56.5 33.2171 54.6807 33.9536 52.0776C35.0838 48.0818 38.7807 45.3 42.9333 45.3C48.0776 45.3 52.2667 49.4891 52.2667 54.6333C52.2667 55.6615 53.1052 56.5 54.1333 56.5C55.1615 56.5 56 55.6615 56 54.6333C56 50.6193 54.1698 46.8786 50.987 44.3779H50.9831ZM13.0627 41.5669C9.46064 41.5669 6.52941 38.6357 6.52941 35.0336C6.52941 31.4315 9.46064 28.5003 13.0627 28.5003C16.6649 28.5003 19.5961 31.4315 19.5961 35.0336C19.5961 38.6357 16.6649 41.5669 13.0627 41.5669ZM42.9294 41.5669C39.3273 41.5669 36.3961 38.6357 36.3961 35.0336C36.3961 31.4315 39.3273 28.5003 42.9294 28.5003C46.5315 28.5003 49.4627 31.4315 49.4627 35.0336C49.4627 38.6357 46.5315 41.5669 42.9294 41.5669Z" fill="url(#paint1_linear_476_64)"/>
<defs>
<linearGradient id="paint0_linear_476_64" x1="28" y1="0.5" x2="28" y2="56.5" gradientUnits="userSpaceOnUse">
<stop stop-color="#049E76"/>
<stop offset="1" stop-color="white"/>
</linearGradient>
<linearGradient id="paint1_linear_476_64" x1="28" y1="0.5" x2="28" y2="56.5" gradientUnits="userSpaceOnUse">
<stop stop-color="#049E76"/>
<stop offset="1" stop-color="white"/>
</linearGradient>
</defs>
</svg>
