<svg width="56" height="57" viewBox="0 0 56 57" fill="none" xmlns="http://www.w3.org/2000/svg">
<path d="M0 17.9176C0.0182289 18.4493 0.233333 18.9395 0.627087 19.309C1.33802 19.9764 2.57756 19.8671 3.34327 19.079L13.0779 9.01077C13.5737 8.49794 14.2264 8.21891 14.9264 8.21891C15.6264 8.21891 16.279 8.49794 16.7748 9.01077L29.0099 21.6651C29.626 22.3023 30.2786 22.785 30.9421 23.0829C33.414 24.2029 36.214 23.6825 38.0916 21.733L52.2521 7.08728V17.8718C52.2521 18.411 52.4745 18.9352 52.8683 19.3009C53.262 19.6667 53.7724 19.8401 54.3157 19.7949C55.2599 19.6968 55.9964 18.7805 55.9964 17.7096V6.29188C55.9964 3.09805 53.4845 0.5 50.3964 0.5H39.357C38.3107 0.5 37.4247 1.26169 37.3408 2.23834C37.2861 2.7964 37.4611 3.32808 37.8184 3.73534C38.1721 4.14259 38.6789 4.37261 39.2002 4.37261H49.6274L35.4492 19.0367C34.432 20.0887 32.7695 20.0887 31.7523 19.0367L19.5173 6.38239C18.9012 5.74513 18.2485 5.26243 17.585 4.96454C15.1205 3.84458 12.3132 4.37629 10.4355 6.31443L0.570228 16.5178C0.20565 16.8949 0.00877338 17.3964 0.019712 17.9357L0 17.9176Z" fill="url(#paint0_linear_476_351)"/>
<path d="M55.9999 50.7006V35.3724C55.9999 34.3958 55.3545 33.5399 54.516 33.3664C53.9473 33.2495 53.3859 33.3965 52.9483 33.7736C52.5181 34.1394 52.2666 34.6899 52.2666 35.2593V50.7044C52.2666 51.7678 51.428 52.635 50.3999 52.635H39.1999V42.1333C39.1999 41.1567 38.5546 40.3008 37.7161 40.1273C37.1474 40.0104 36.5859 40.1575 36.1484 40.5346C35.7182 40.9003 35.4666 41.4509 35.4666 42.0203V52.6387H22.4V33.4493C22.4 32.4727 21.7547 31.6167 20.9162 31.4432C20.3474 31.3264 19.786 31.4734 19.3485 31.8505C18.9183 32.2163 18.6667 32.7668 18.6667 33.3362V52.6425H7.46673C6.43857 52.6425 5.60007 51.7752 5.60007 50.7119V37.1975C5.60007 36.6168 5.34851 36.0775 4.9183 35.7118C4.58288 35.4214 4.17091 35.2668 3.73344 35.2668C3.61312 35.2668 3.48187 35.2781 3.35062 35.3045C2.50114 35.478 1.86681 36.3377 1.86681 37.3105V50.7081C1.86681 53.902 4.37878 56.5 7.4668 56.5H50.4C53.488 56.5 56 53.902 56 50.7081L55.9999 50.7006Z" fill="url(#paint1_linear_476_351)"/>
<defs>
<linearGradient id="paint0_linear_476_351" x1="28" y1="0.5" x2="28" y2="56.5" gradientUnits="userSpaceOnUse">
<stop stop-color="#049E76"/>
<stop offset="1" stop-color="white"/>
</linearGradient>
<linearGradient id="paint1_linear_476_351" x1="28" y1="0.5" x2="28" y2="56.5" gradientUnits="userSpaceOnUse">
<stop stop-color="#049E76"/>
<stop offset="1" stop-color="white"/>
</linearGradient>
</defs>
</svg>
