<svg width="64" height="64" viewBox="0 0 64 64" fill="none" xmlns="http://www.w3.org/2000/svg">
<path d="M4.0041 16.32V21.6296C4.0041 21.9047 4.13218 22.1684 4.36017 22.3629C4.58816 22.5574 4.89738 22.6667 5.21981 22.6667H8.9399V39.1141C8.66284 39.1532 8.41088 39.2745 8.22848 39.4567C8.04608 39.6388 7.94498 39.8701 7.94302 40.1096C7.94965 40.348 8.05241 40.5772 8.23399 40.7586C8.41557 40.9399 8.66488 41.0623 8.9399 41.1052V47.3274C8.66284 47.3665 8.41088 47.4879 8.22848 47.67C8.04608 47.8522 7.94498 48.0834 7.94302 48.323C7.94965 48.5614 8.05241 48.7906 8.23399 48.9719C8.41557 49.1532 8.66488 49.2757 8.9399 49.3185V57.9259H6.7273C6.40487 57.9259 6.09565 58.0352 5.86766 58.2297C5.63967 58.4241 5.51158 58.6879 5.51158 58.963C5.51158 59.238 5.63967 59.5018 5.86766 59.6963C6.09565 59.8907 6.40487 60 6.7273 60H57.3497C57.6722 60 57.9814 59.8907 58.2094 59.6963C58.4374 59.5018 58.5655 59.238 58.5655 58.963C58.5655 58.6879 58.4374 58.4241 58.2094 58.2297C57.9814 58.0352 57.6722 57.9259 57.3497 57.9259H55.1371V49.4015C55.4122 49.3586 55.6615 49.2362 55.843 49.0549C56.0246 48.8735 56.1274 48.6443 56.134 48.4059C56.1321 48.1664 56.031 47.9351 55.8486 47.753C55.6662 47.5708 55.4142 47.4495 55.1371 47.4104V41.1881C55.4122 41.1453 55.6615 41.0229 55.843 40.8415C56.0246 40.6602 56.1274 40.431 56.134 40.1926C56.1321 39.953 56.031 39.7218 55.8486 39.5396C55.6662 39.3575 55.4142 39.2361 55.1371 39.197V22.6667H58.7843C59.1067 22.6667 59.4159 22.5574 59.6439 22.3629C59.8719 22.1684 60 21.9047 60 21.6296V16.32C60 16.045 59.8719 15.7812 59.6439 15.5867C59.4159 15.3922 59.1067 15.283 58.7843 15.283H53.7026V9.06074C53.7026 8.7857 53.5745 8.52193 53.3465 8.32745C53.1185 8.13296 52.8093 8.0237 52.4869 8.0237H42.7611V5.03704C42.7611 4.762 42.6331 4.49822 42.4051 4.30374C42.1771 4.10926 41.8678 4 41.5454 4H22.6289C22.3064 4 21.9972 4.10926 21.7692 4.30374C21.5412 4.49822 21.4132 4.762 21.4132 5.03704V7.94074H11.6874C11.365 7.94074 11.0558 8.05 10.8278 8.24448C10.5998 8.43896 10.4717 8.70274 10.4717 8.97778V15.2H5.29276C5.11856 15.1906 4.94402 15.2132 4.78101 15.2665C4.618 15.3197 4.47034 15.4023 4.34808 15.5085C4.22581 15.6148 4.13181 15.7423 4.07245 15.8823C4.01309 16.0223 3.98978 16.1716 4.0041 16.32ZM23.1395 39.1348V38.6785C23.1395 36.6487 24.0847 34.7021 25.7673 33.2668C27.4499 31.8315 29.7319 31.0252 32.1115 31.0252C34.491 31.0252 36.773 31.8315 38.4556 33.2668C40.1382 34.7021 41.0834 36.6487 41.0834 38.6785V39.1348C40.761 39.1348 40.4518 39.2441 40.2238 39.4386C39.9958 39.633 39.8677 39.8968 39.8677 40.1719C39.8677 40.4469 39.9958 40.7107 40.2238 40.9051C40.4518 41.0996 40.761 41.2089 41.0834 41.2089V47.4311C40.761 47.4311 40.4518 47.5404 40.2238 47.7349C39.9958 47.9293 39.8677 48.1931 39.8677 48.4681C39.8677 48.7432 39.9958 49.007 40.2238 49.2014C40.4518 49.3959 40.761 49.5052 41.0834 49.5052V57.9259H23.0665V49.443C23.389 49.443 23.6982 49.3337 23.9262 49.1392C24.1542 48.9447 24.2822 48.681 24.2822 48.4059C24.2822 48.1309 24.1542 47.8671 23.9262 47.6726C23.6982 47.4781 23.389 47.3689 23.0665 47.3689V41.1467C23.389 41.1467 23.6982 41.0374 23.9262 40.8429C24.1542 40.6484 24.2822 40.3847 24.2822 40.1096C24.2828 39.845 24.1648 39.5903 23.9523 39.3975C23.7399 39.2047 23.4491 39.0885 23.1395 39.0726V39.1348ZM43.4419 41.2089H52.7057V47.4311H43.4419V41.2089ZM20.6351 47.4311H11.3713V41.2089H20.6351V47.4311ZM11.3713 49.5052H20.6351V57.9259H11.3713V49.5052ZM43.4419 57.9259V49.443H52.7057V57.9259H43.4419ZM52.7057 39.0726H43.4419V38.6163C43.4419 36.0364 42.2405 33.5622 40.102 31.738C37.9634 29.9137 35.0629 28.8889 32.0385 28.8889C29.0141 28.8889 26.1136 29.9137 23.9751 31.738C21.8365 33.5622 20.6351 36.0364 20.6351 38.6163V39.0726H11.3713V22.6667H52.7057V39.0726ZM23.8446 6.07407H40.2568V7.94074H23.8446V6.07407ZM12.8059 13.6859H35.7343C36.0567 13.6859 36.3659 13.5767 36.5939 13.3822C36.8219 13.1877 36.95 12.9239 36.95 12.6489C36.95 12.3738 36.8219 12.1101 36.5939 11.9156C36.3659 11.7211 36.0567 11.6119 35.7343 11.6119H12.8059V10.0148H51.2712V15.283H12.8059V13.6859ZM6.43553 17.357H57.6415V20.5926H6.43553V17.357ZM16.3071 30.4444V29.2207C16.3071 28.9457 16.4352 28.6819 16.6632 28.4874C16.8912 28.293 17.2004 28.1837 17.5229 28.1837C17.8453 28.1837 18.1545 28.293 18.3825 28.4874C18.6105 28.6819 18.7386 28.9457 18.7386 29.2207V30.4444C18.7386 30.7195 18.6105 30.9833 18.3825 31.1777C18.1545 31.3722 17.8453 31.4815 17.5229 31.4815C17.2004 31.4815 16.8912 31.3722 16.6632 31.1777C16.4352 30.9833 16.3071 30.7195 16.3071 30.4444ZM45.3385 30.4444V29.2207C45.3385 28.9457 45.4665 28.6819 45.6945 28.4874C45.9225 28.293 46.2317 28.1837 46.5542 28.1837C46.8766 28.1837 47.1858 28.293 47.4138 28.4874C47.6418 28.6819 47.7699 28.9457 47.7699 29.2207V30.4444C47.7699 30.7195 47.6418 30.9833 47.4138 31.1777C47.1858 31.3722 46.8766 31.4815 46.5542 31.4815C46.2317 31.4815 45.9225 31.3722 45.6945 31.1777C45.4665 30.9833 45.3385 30.7195 45.3385 30.4444Z" fill="url(#paint0_linear_95_2447)"/>
<defs>
<linearGradient id="paint0_linear_95_2447" x1="32" y1="4" x2="32" y2="60" gradientUnits="userSpaceOnUse">
<stop stop-color="#36A588"/>
<stop offset="1" stop-color="#2D5F52"/>
</linearGradient>
</defs>
</svg>
