<svg width="64" height="64" viewBox="0 0 64 64" fill="none" xmlns="http://www.w3.org/2000/svg">
<path d="M46.6835 57.9259H45.0084C46.2066 54.5318 47.0163 51.0614 47.428 47.5556C48.1991 40.9185 49.6615 28.5778 40.1958 18.1659C35.7248 13.402 29.7412 9.6279 22.8333 7.21482V5.03704C22.8333 4.762 22.6933 4.49822 22.4439 4.30374C22.1946 4.10926 21.8565 4 21.5039 4C21.1513 4 20.8132 4.10926 20.5638 4.30374C20.3145 4.49822 20.1744 4.762 20.1744 5.03704V57.9259H17.3294C16.9769 57.9259 16.6387 58.0352 16.3894 58.2297C16.1401 58.4241 16 58.6879 16 58.963C16 59.238 16.1401 59.5018 16.3894 59.6963C16.6387 59.8907 16.9769 60 17.3294 60H46.5772C46.9297 60 47.2679 59.8907 47.5172 59.6963C47.7665 59.5018 47.9066 59.238 47.9066 58.963C47.9066 58.6879 47.7665 58.4241 47.5172 58.2297C47.2679 58.0352 46.9297 57.9259 46.5772 57.9259H46.6835ZM38.0156 19.5556C46.9228 29.3452 45.5934 40.7526 44.7691 47.5556C44.3543 51.1014 43.5086 54.6086 42.2432 58.0296H39.2386C40.5602 54.593 41.4507 51.0643 41.8975 47.4933C42.1102 45.6267 42.3761 43.3452 42.4293 41.043C42.4408 41.002 42.4408 40.9595 42.4293 40.9185C42.4293 40.9185 42.4293 40.9185 42.4293 40.8148C42.4816 38.7716 42.3661 36.728 42.0836 34.6963C41.4231 29.4875 38.8986 24.5285 34.7983 20.3852C32.9323 18.5131 30.7602 16.8396 28.3372 15.4074C28.0464 15.252 27.6894 15.1911 27.3419 15.2376C26.9945 15.2841 26.6839 15.4342 26.476 15.6563C26.2756 15.8774 26.1939 16.1509 26.2486 16.4183C26.3033 16.6857 26.4898 16.9259 26.7685 17.0874C28.7358 18.2391 30.5208 19.5689 32.0862 21.0489H22.8333V9.6C28.8756 11.8833 34.0935 15.3048 38.0156 19.5556ZM34.2665 23.2889C36.8735 26.4234 38.5789 29.9614 39.2652 33.6593H22.8333V29.5111H33.6018C33.9544 29.5111 34.2925 29.4019 34.5419 29.2074C34.7912 29.0129 34.9313 28.7491 34.9313 28.4741C34.9313 28.199 34.7912 27.9353 34.5419 27.7408C34.2925 27.5463 33.9544 27.437 33.6018 27.437H22.8333V23.2889H34.2665ZM39.8236 39.8815H22.8333V35.7333H39.5843C39.7506 37.0775 39.8305 38.4274 39.8236 39.7778V39.8815ZM22.8333 48.1778H34.6654C35.018 48.1778 35.3561 48.0685 35.6054 47.874C35.8547 47.6796 35.9948 47.4158 35.9948 47.1407C35.9948 46.8657 35.8547 46.6019 35.6054 46.4074C35.3561 46.213 35.018 46.1037 34.6654 46.1037H22.8333V41.9556H39.7438C39.7438 43.8844 39.4248 45.6889 39.2386 47.3067C39.0525 48.9244 38.7069 50.6667 38.308 52.3259H22.8333V48.1778ZM22.8333 54.4H37.7231C37.3508 55.6237 36.9254 56.8267 36.4468 58.0296H22.8333V54.4Z" fill="url(#paint0_linear_95_2462)"/>
<defs>
<linearGradient id="paint0_linear_95_2462" x1="32" y1="4" x2="32" y2="60" gradientUnits="userSpaceOnUse">
<stop stop-color="#36A588"/>
<stop offset="1" stop-color="#2D5F52"/>
</linearGradient>
</defs>
</svg>
