<svg width="56" height="56" viewBox="0 0 56 56" fill="none" xmlns="http://www.w3.org/2000/svg">
<path d="M9.13689 51.9999H46.8564C49.6928 51.9999 52 49.7718 52 47.0328V8.95163C52 7.03076 50.8346 5.26835 49.0431 4.45664C47.2683 3.65466 45.075 3.9263 43.5647 5.13574L30.5249 15.6263L23.1176 12.6447C21.4634 11.9753 19.3705 12.2566 17.964 13.3238L5.96236 22.4301C4.70999 23.3808 4 24.7973 4 26.3366V47.0329C4 49.7719 6.30724 52 9.14357 52L9.13689 51.9999ZM33.1402 48.6885H20.9071C21.0544 48.4492 21.1382 48.1678 21.1382 47.8703V33.7323L32.2826 37.9201C32.5572 38.0268 32.8485 38.0947 33.1398 38.1529V48.6914L33.1402 48.6885ZM48.5709 47.0328C48.5709 47.9448 47.8008 48.6885 46.8564 48.6885H36.5693V37.7517C36.9108 37.5933 37.2457 37.4025 37.5538 37.1729L48.5713 28.9041L48.5709 47.0328ZM7.42236 26.3365C7.42236 25.8223 7.66347 25.3502 8.08205 25.0365L20.0837 15.9302C20.365 15.7135 20.7602 15.5906 21.172 15.5906C21.3964 15.5906 21.6174 15.6327 21.8049 15.707L29.2122 18.6886C30.3943 19.1672 31.7404 18.97 32.7283 18.1745L45.7681 7.68392C46.247 7.29587 47.0273 7.20532 47.5932 7.46079C48.1926 7.73242 48.5776 8.32101 48.5776 8.95804V24.7129L35.4538 34.5627C34.9147 34.9669 34.178 35.0768 33.535 34.8343L21.7142 30.3975C20.1638 29.8187 18.4559 29.9512 17.026 30.7629L7.4324 36.2086V26.339L7.42236 26.3365ZM7.42236 40.0474L17.7095 34.2104V47.8798C17.7095 48.1774 17.7966 48.4587 17.9406 48.698H9.13649C8.19212 48.698 7.42196 47.9542 7.42196 47.0423L7.42236 40.0474Z" fill="url(#paint0_linear_91_1948)"/>
<defs>
<linearGradient id="paint0_linear_91_1948" x1="28" y1="4" x2="28" y2="52" gradientUnits="userSpaceOnUse">
<stop stop-color="#049E76"/>
<stop offset="1" stop-color="white"/>
</linearGradient>
</defs>
</svg>
