<svg width="48" height="48" viewBox="0 0 48 48" fill="none" xmlns="http://www.w3.org/2000/svg">
<path d="M39.4289 2.39996C39.4289 4.53432 36.0004 4.53432 36.0004 2.39996C36.0004 0.265596 39.4289 0.265596 39.4289 2.39996Z" fill="url(#paint0_linear_322_61)"/>
<path d="M48 11.9998C48 14.1342 44.5716 14.1342 44.5716 11.9998C44.5716 9.86544 48 9.86544 48 11.9998Z" fill="url(#paint1_linear_322_61)"/>
<path d="M47.1429 24.7996C47.1429 26.934 43.7144 26.934 43.7144 24.7996C43.7144 22.6652 47.1429 22.6652 47.1429 24.7996Z" fill="url(#paint2_linear_322_61)"/>
<path d="M41.1431 35.1994C41.1431 37.3338 37.7147 37.3338 37.7147 35.1994C37.7147 33.065 41.1431 33.065 41.1431 35.1994Z" fill="url(#paint3_linear_322_61)"/>
<path d="M45.4287 46.3992C45.4287 48.5336 42.0002 48.5336 42.0002 46.3992C42.0002 44.2649 45.4287 44.2649 45.4287 46.3992Z" fill="url(#paint4_linear_322_61)"/>
<path d="M19.7153 18.3997C19.7153 20.5341 16.2869 20.5341 16.2869 18.3997C16.2869 16.2653 19.7153 16.2653 19.7153 18.3997Z" fill="url(#paint5_linear_322_61)"/>
<path d="M24.0274 3.19995C24.9783 3.19995 25.7149 2.48121 25.7149 1.56869C25.7149 0.706228 24.9449 0 24.0007 0C14.7268 0 7.03931 7.04052 6.85846 15.6869V16.1494L0.969161 24.3741C0.0785361 25.6147 -0.212711 27.0772 0.155573 28.3834C0.754883 30.5021 2.80388 31.9927 5.13419 31.9927H6.84842V37.5926C6.84842 40.2394 9.15525 42.3925 11.9911 42.3925H19.8591L21.5131 46.9112C21.8211 47.7518 22.8757 48.2143 23.7831 47.8705C24.5966 47.5674 25.0185 46.5736 24.6904 45.7018L23.0967 41.3488C22.6246 40.0519 21.3222 39.1801 19.8558 39.1801H11.9877C11.0436 39.1801 10.2735 38.4613 10.2735 37.5801V30.3802C10.2735 29.499 9.50346 28.7803 8.5593 28.7803H5.13085C3.7581 28.7803 2.94453 27.3553 3.70787 26.2928L9.57035 18.0929C10.0324 17.4461 10.2801 16.6836 10.2801 15.9086C10.2801 8.89307 16.3904 3.18076 23.9065 3.18076H24.017L24.0274 3.19995Z" fill="url(#paint6_linear_322_61)"/>
<defs>
<linearGradient id="paint0_linear_322_61" x1="24" y1="0" x2="24" y2="48" gradientUnits="userSpaceOnUse">
<stop stop-color="#049E76"/>
<stop offset="1" stop-color="white"/>
</linearGradient>
<linearGradient id="paint1_linear_322_61" x1="24" y1="0" x2="24" y2="48" gradientUnits="userSpaceOnUse">
<stop stop-color="#049E76"/>
<stop offset="1" stop-color="white"/>
</linearGradient>
<linearGradient id="paint2_linear_322_61" x1="24" y1="0" x2="24" y2="48" gradientUnits="userSpaceOnUse">
<stop stop-color="#049E76"/>
<stop offset="1" stop-color="white"/>
</linearGradient>
<linearGradient id="paint3_linear_322_61" x1="24" y1="0" x2="24" y2="48" gradientUnits="userSpaceOnUse">
<stop stop-color="#049E76"/>
<stop offset="1" stop-color="white"/>
</linearGradient>
<linearGradient id="paint4_linear_322_61" x1="24" y1="0" x2="24" y2="48" gradientUnits="userSpaceOnUse">
<stop stop-color="#049E76"/>
<stop offset="1" stop-color="white"/>
</linearGradient>
<linearGradient id="paint5_linear_322_61" x1="24" y1="0" x2="24" y2="48" gradientUnits="userSpaceOnUse">
<stop stop-color="#049E76"/>
<stop offset="1" stop-color="white"/>
</linearGradient>
<linearGradient id="paint6_linear_322_61" x1="24" y1="0" x2="24" y2="48" gradientUnits="userSpaceOnUse">
<stop stop-color="#049E76"/>
<stop offset="1" stop-color="white"/>
</linearGradient>
</defs>
</svg>
