<svg width="57" height="56" viewBox="0 0 57 56" fill="none" xmlns="http://www.w3.org/2000/svg">
<path d="M5.30422 41.2387V50.2714C5.30422 50.9926 5.72789 51.6945 6.41349 51.9112C7.55513 52.2766 8.61596 51.4325 8.61596 50.3459V41.3131C8.61596 40.5919 8.19229 39.89 7.50669 39.6734C6.36505 39.3079 5.30422 40.152 5.30422 41.2387Z" fill="url(#paint0_linear_91_1966)"/>
<path d="M19.3791 32.9593V50.2714C19.3791 50.9926 19.8028 51.6945 20.4884 51.9112C21.63 52.2766 22.6908 51.4325 22.6908 50.3459V33.0338C22.6908 32.3126 22.2672 31.6107 21.5816 31.394C20.4399 31.0286 19.3791 31.8727 19.3791 32.9593Z" fill="url(#paint1_linear_91_1966)"/>
<path d="M36.7657 50.346V37.1735C36.7657 36.4523 36.3421 35.7505 35.6565 35.5338C34.5148 35.1683 33.454 36.0124 33.454 37.0991V50.2715C33.454 50.9927 33.8777 51.6946 34.5633 51.9112C35.7049 52.2767 36.7657 51.4326 36.7657 50.346Z" fill="url(#paint2_linear_91_1966)"/>
<path d="M50.8406 50.346V32.1314C50.8406 31.2193 50.0968 30.4755 49.1847 30.4755C48.2727 30.4755 47.5289 31.2194 47.5289 32.1314V50.346C47.5289 51.258 48.2727 52.0018 49.1847 52.0018C50.0968 52.0018 50.8406 51.258 50.8406 50.346Z" fill="url(#paint3_linear_91_1966)"/>
<path d="M7.39062 29.8968L20.2137 17.0738C20.6373 16.6501 21.2324 16.4108 21.8534 16.4108C22.4743 16.4108 23.0695 16.6501 23.4931 17.0738L28.4704 22.051C29.4471 23.0278 30.7214 23.7166 32.0958 23.8396C33.8002 23.9883 35.4237 23.3997 36.6171 22.2095L49.1785 9.6481V18.8978C49.1785 19.3603 49.3758 19.8098 49.7251 20.1235C50.0744 20.4372 50.5272 20.586 51.0091 20.5472C51.8467 20.4631 52.5 19.6772 52.5 18.7587V8.9659C52.5 6.22659 50.2717 3.99829 47.5324 3.99829H37.7396C36.8114 3.99829 36.0255 4.65158 35.9511 5.48924C35.9026 5.96789 36.0578 6.42389 36.3748 6.77319C36.6885 7.12248 37.138 7.31976 37.6005 7.31976H46.8502L34.273 19.8969C33.8494 20.3206 33.2543 20.5599 32.6333 20.5599C32.0124 20.5599 31.4172 20.3206 30.9936 19.8969L26.026 14.9293C25.0493 13.9526 23.775 13.2638 22.4006 13.1408C20.6962 12.992 19.0727 13.5806 17.8793 14.7708L4.98835 27.6618C4.67464 27.9755 4.5 28.3895 4.5 28.8293C4.5 29.2433 4.64877 29.6314 4.93014 29.9386C5.57696 30.6501 6.73478 30.5919 7.41394 29.9127L7.39062 29.8968Z" fill="url(#paint4_linear_91_1966)"/>
<defs>
<linearGradient id="paint0_linear_91_1966" x1="28.5" y1="3.99829" x2="28.5" y2="52.0018" gradientUnits="userSpaceOnUse">
<stop stop-color="#049E76"/>
<stop offset="1" stop-color="white"/>
</linearGradient>
<linearGradient id="paint1_linear_91_1966" x1="28.5" y1="3.99829" x2="28.5" y2="52.0018" gradientUnits="userSpaceOnUse">
<stop stop-color="#049E76"/>
<stop offset="1" stop-color="white"/>
</linearGradient>
<linearGradient id="paint2_linear_91_1966" x1="28.5" y1="3.99829" x2="28.5" y2="52.0018" gradientUnits="userSpaceOnUse">
<stop stop-color="#049E76"/>
<stop offset="1" stop-color="white"/>
</linearGradient>
<linearGradient id="paint3_linear_91_1966" x1="28.5" y1="3.99829" x2="28.5" y2="52.0018" gradientUnits="userSpaceOnUse">
<stop stop-color="#049E76"/>
<stop offset="1" stop-color="white"/>
</linearGradient>
<linearGradient id="paint4_linear_91_1966" x1="28.5" y1="3.99829" x2="28.5" y2="52.0018" gradientUnits="userSpaceOnUse">
<stop stop-color="#049E76"/>
<stop offset="1" stop-color="white"/>
</linearGradient>
</defs>
</svg>
