<svg width="49" height="48" viewBox="0 0 49 48" fill="none" xmlns="http://www.w3.org/2000/svg">
<path d="M47.5255 24.7923C48.8883 22.8168 48.814 20.2007 47.3511 18.2785C46.2693 16.8533 44.4254 16.0062 42.4232 16.0062H38.406L41.2898 9.03616C41.9679 7.38896 42.0163 5.66046 41.4125 4.15393C40.4049 1.63472 37.9571 0 35.1799 0H26.9451C26.0344 0 25.2917 0.718892 25.2917 1.60031C25.2917 2.48176 26.0345 3.20062 26.9451 3.20062H35.1799C36.2972 3.20062 37.3371 3.73823 37.9571 4.62586C38.5868 5.52291 38.7095 6.65122 38.2962 7.65141L33.6492 18.8944C33.6169 18.9663 33.6234 19.0382 33.675 19.1038C33.7235 19.1663 33.7816 19.2007 33.8655 19.2007H42.6683C43.6016 19.2007 44.4638 19.6977 44.8997 20.4978C45.3389 21.298 45.2969 22.2575 44.777 23.0108L30.394 43.8965C30.0388 44.4153 29.4188 44.7435 28.7503 44.7779C28.0721 44.8029 27.4262 44.5529 27.0129 44.0747C26.6092 43.6027 26.4413 42.9932 26.5576 42.3931L28.6824 31.0781C28.789 30.5092 28.634 29.9341 28.2529 29.4933C27.8719 29.0526 27.3197 28.7963 26.7222 28.7963H15.3873C14.4766 28.7963 13.7339 29.5152 13.7339 30.3967C13.7339 31.2781 14.4766 31.997 15.3873 31.997H25.1498L23.3382 41.63C23.0992 42.9272 23.28 44.2056 23.8581 45.2307C24.8172 46.9342 26.6515 48 28.6374 48C30.4555 48 32.1413 47.128 33.152 45.662L47.535 24.7764L47.5255 24.7923Z" fill="url(#paint0_linear_740_116)"/>
<path d="M0.981258 13.134L7.25578 19.207C8.32148 20.2385 9.73589 20.8073 11.2472 20.8073C12.7585 20.8073 14.173 20.2385 15.2386 19.207L21.5131 13.134C21.8264 12.8308 22.0007 12.4307 22.0007 12.0056C22.0007 11.5805 21.8264 11.1742 21.5131 10.8772C20.8931 10.2771 19.7951 10.2771 19.1751 10.8772L12.9006 16.9503V1.60967C12.9006 0.728222 12.1579 0.00936157 11.2472 0.00936157C10.3365 0.00936157 9.59378 0.728254 9.59378 1.60967V16.9503L3.31926 10.8772C3.00601 10.5741 2.59266 10.4147 2.15344 10.4147C1.71422 10.4147 1.29441 10.5834 0.987623 10.8772C0.674377 11.1804 0.5 11.5805 0.5 12.0056C0.5 12.4307 0.674385 12.8371 0.987623 13.134H0.981258Z" fill="url(#paint1_linear_740_116)"/>
<defs>
<linearGradient id="paint0_linear_740_116" x1="24.5" y1="0" x2="24.5" y2="48" gradientUnits="userSpaceOnUse">
<stop stop-color="#049E76"/>
<stop offset="1" stop-color="white"/>
</linearGradient>
<linearGradient id="paint1_linear_740_116" x1="24.5" y1="0" x2="24.5" y2="48" gradientUnits="userSpaceOnUse">
<stop stop-color="#049E76"/>
<stop offset="1" stop-color="white"/>
</linearGradient>
</defs>
</svg>
