<svg width="57" height="56" viewBox="0 0 57 56" fill="none" xmlns="http://www.w3.org/2000/svg">
<path d="M9.4212 32.7645L19.595 36.9023L23.7328 47.0761C24.5228 49.0211 26.3976 50.2799 28.4966 50.2799C30.5957 50.2799 32.4637 49.0211 33.2605 47.0761L37.3983 36.9023L47.572 32.7645C49.5171 31.9745 50.7759 30.0997 50.7759 28.0007C50.7759 25.9016 49.5171 24.0336 47.572 23.2368L37.3983 19.099L33.2605 8.92524C32.4637 6.98022 30.5957 5.72142 28.4966 5.72142C26.3976 5.72142 24.5295 6.98022 23.7328 8.92524L19.595 19.099L9.4212 23.2368C7.47618 24.0269 6.21738 25.9016 6.21738 28.0007C6.21738 30.0997 7.47618 31.9678 9.4212 32.7645ZM10.7168 26.4138L20.8905 22.276C21.7475 21.9245 22.4238 21.2482 22.7753 20.3912L26.9131 10.2175C27.1776 9.55796 27.7868 9.14618 28.5 9.14618C29.2097 9.14618 29.819 9.55796 30.0868 10.2175L34.2246 20.3912C34.5762 21.2482 35.2524 21.9245 36.1094 22.276L46.2832 26.4138C46.9427 26.6783 47.3544 27.2875 47.3544 28.0007C47.3544 28.7104 46.9427 29.3197 46.2832 29.5875L36.1094 33.7253C35.2524 34.0769 34.5761 34.7531 34.2246 35.6101L30.0868 45.7839C29.8224 46.4434 29.2131 46.8551 28.5 46.8551C27.7902 46.8551 27.1809 46.4434 26.9131 45.7839L22.7753 35.6101C22.4238 34.7531 21.7475 34.0768 20.8905 33.7253L10.7168 29.5875C10.0573 29.3231 9.64548 28.7138 9.64548 28.0007C9.64548 27.2909 10.0573 26.6816 10.7168 26.4138Z" fill="url(#paint0_linear_91_1973)"/>
<path d="M44.3381 48.3812L46.5845 49.014C46.7318 49.0809 46.8423 49.2014 46.9193 49.3487L47.552 51.5951C47.8265 52.1441 48.6066 52.1441 48.8811 51.5951L49.5071 49.3487C49.5741 49.2014 49.6946 49.091 49.8419 49.014L52.0882 48.3812C52.6373 48.1067 52.6373 47.3267 52.0882 47.0522L49.8419 46.4194C49.6946 46.3525 49.5841 46.232 49.5071 46.0847L48.8811 43.8383C48.6066 43.2893 47.8265 43.2893 47.552 43.8383L46.9193 46.0847C46.8523 46.232 46.7318 46.3424 46.5845 46.4194L44.3381 47.0522C43.7891 47.3267 43.7891 48.1067 44.3381 48.3812Z" fill="url(#paint1_linear_91_1973)"/>
<path d="M7.49289 9.91536L8.12562 12.1617C8.40013 12.7107 9.18019 12.7107 9.45469 12.1617L10.0807 9.91536C10.1477 9.76806 10.2682 9.65759 10.4155 9.58058L12.6619 8.94786C13.2109 8.67334 13.2109 7.89329 12.6619 7.61878L10.4155 6.98606C10.2682 6.9191 10.1577 6.79858 10.0807 6.65128L9.45469 4.40493C9.18018 3.85591 8.40012 3.85591 8.12562 4.40493L7.49289 6.65128C7.42594 6.79859 7.30542 6.90906 7.15812 6.98606L4.91177 7.61878C4.36274 7.8933 4.36274 8.67335 4.91177 8.94786L7.15812 9.58058C7.30543 9.64754 7.4159 9.76806 7.49289 9.91536Z" fill="url(#paint2_linear_91_1973)"/>
<defs>
<linearGradient id="paint0_linear_91_1973" x1="28.5" y1="3.99316" x2="28.5" y2="52.0069" gradientUnits="userSpaceOnUse">
<stop stop-color="#049E76"/>
<stop offset="1" stop-color="white"/>
</linearGradient>
<linearGradient id="paint1_linear_91_1973" x1="28.5" y1="3.99316" x2="28.5" y2="52.0069" gradientUnits="userSpaceOnUse">
<stop stop-color="#049E76"/>
<stop offset="1" stop-color="white"/>
</linearGradient>
<linearGradient id="paint2_linear_91_1973" x1="28.5" y1="3.99316" x2="28.5" y2="52.0069" gradientUnits="userSpaceOnUse">
<stop stop-color="#049E76"/>
<stop offset="1" stop-color="white"/>
</linearGradient>
</defs>
</svg>
