<svg width="55" height="44" viewBox="0 0 55 44" fill="none" xmlns="http://www.w3.org/2000/svg">
<path fill-rule="evenodd" clip-rule="evenodd" d="M35.2901 37.0315L35.8299 37.344C36.9121 37.9691 38.2009 38.1395 39.4097 37.8141C40.6185 37.4912 41.6491 36.7009 42.2741 35.6187C42.2741 35.6161 42.2767 35.6135 42.2793 35.6109C42.6202 35.0195 42.8243 34.366 42.8888 33.6996L43.5191 34.0612C44.6013 34.6863 45.8875 34.8567 47.0989 34.5313C48.3051 34.2085 49.3357 33.4181 49.9607 32.3359C49.9633 32.3333 49.9633 32.3307 49.9659 32.3282C50.5909 31.2459 50.7588 29.9571 50.436 28.7483C50.2991 28.2395 50.0795 27.759 49.7903 27.3329L51.4355 26.3747C54.8501 24.3884 56.0124 20.0157 54.0391 16.596C51.885 12.8664 48.9922 7.85544 47.0573 4.50838C45.5154 1.83252 42.5192 0.342216 39.456 0.721884L27.5 2.20703L15.544 0.721884C12.4807 0.342203 9.48455 1.83252 7.94267 4.50838C6.54017 6.93629 0.960931 16.596 0.960931 16.596C-1.01239 20.0157 0.149888 24.3884 3.56445 26.3747L5.04444 27.2348C4.6286 27.7462 4.31863 28.3428 4.14559 28.9937C3.82015 30.1999 3.99062 31.4887 4.61568 32.5736C4.61826 32.5762 4.61826 32.5788 4.62084 32.5813C5.24589 33.6635 6.27645 34.4539 7.48263 34.7768C8.10768 34.9447 8.75599 34.9808 9.38362 34.8904C9.39653 35.6859 9.61091 36.4737 10.0138 37.1762C10.0164 37.1788 10.0164 37.1814 10.019 37.184C10.644 38.2662 11.6746 39.0565 12.8834 39.3794C13.9966 39.679 15.1796 39.5576 16.2049 39.0462C16.2643 39.7177 16.4709 40.3738 16.817 40.9705C16.817 40.973 16.8196 40.9756 16.8196 40.9782C17.4447 42.0604 18.4752 42.8508 19.684 43.1762C20.8902 43.4991 22.179 43.3312 23.2639 42.7061L26.3607 40.9188C26.7223 40.7096 27.0504 40.4591 27.3371 40.1724L28.2256 40.6838C29.3078 41.3088 30.5966 41.4793 31.8055 41.1539C33.0142 40.831 34.0448 40.0406 34.6698 38.9559C34.6698 38.9533 34.6724 38.9507 34.675 38.9481C35.0159 38.3592 35.22 37.7058 35.2846 37.0368L35.2901 37.0315ZM19.9248 36.9075L23.0759 35.0892C23.7009 34.7276 24.6049 34.8541 25.088 35.1538C25.5735 35.4482 25.9997 36.1817 25.9816 36.8662C25.9636 37.5558 25.5839 38.1834 24.9898 38.5269L21.893 40.3143C21.441 40.5725 20.9063 40.6449 20.4053 40.5106C19.9016 40.3762 19.4419 39.9888 19.2094 39.5885C18.9769 39.1856 18.8788 38.6018 19.0131 38.1008C19.1448 37.5971 19.4754 37.171 19.9248 36.9075ZM25.3075 31.2692C25.3049 31.3208 25.3023 31.3725 25.2997 31.4267C25.2765 31.6953 25.2326 31.964 25.1706 32.2196C25.6717 32.3462 26.1547 32.5554 26.6015 32.8499L26.6041 32.8524C27.9782 33.7565 28.784 35.3061 28.735 36.9488C28.7298 37.2149 28.6988 37.4783 28.6472 37.7366L29.6106 38.2919C30.0626 38.5502 30.5972 38.6225 31.1009 38.4882C31.6019 38.3539 32.0307 38.0259 32.2916 37.5739L32.2967 37.5662C32.555 37.1167 32.6273 36.5821 32.493 36.0784C32.3587 35.5774 32.0307 35.146 31.5787 34.8877L25.3101 31.2665L25.3075 31.2692ZM13.1213 33.1159L19.6379 29.3527C20.3276 28.955 21.1877 29.0221 21.8075 29.518L21.8152 29.5232C22.3241 29.9338 22.6004 30.5666 22.5514 31.2175C22.5023 31.871 22.1329 32.4547 21.5673 32.7802L15.0869 36.5228C14.6349 36.7836 14.1002 36.8534 13.5966 36.7216C13.0955 36.5873 12.6641 36.2567 12.4059 35.8073L12.4007 35.7996C12.1424 35.3476 12.0701 34.8129 12.2044 34.3118C12.3387 33.8082 12.6667 33.3821 13.1187 33.1186L13.1213 33.1159ZM47.5149 25.4684L50.0487 23.9935C52.1512 22.7692 52.8666 20.0779 51.6527 17.9729C49.4986 14.2432 46.6058 9.22964 44.6709 5.88259C43.6791 4.16754 41.7575 3.20931 39.7945 3.45468L23.5743 5.46933L14.7848 15.1475L14.9191 15.553C15.1671 16.2994 15.7689 16.878 16.5231 17.1028C17.2773 17.3223 18.096 17.1596 18.7082 16.6637L26.7386 10.1729C26.7386 10.1729 28.5441 8.8402 29.1484 10.6611L29.8923 12.903C30.0188 13.2827 30.2952 13.6004 30.6516 13.7786C31.0106 13.9594 31.4265 13.9878 31.8087 13.8612L36.0524 12.451C36.7756 12.2108 37.553 12.6034 37.7932 13.324C38.0334 14.0446 37.6408 14.8246 36.9202 15.0648L32.6766 16.4751C31.6021 16.8341 30.4295 16.7489 29.417 16.24C28.4019 15.7338 27.6348 14.8427 27.2758 13.7682L27.1492 13.3808L20.4392 18.8048C19.122 19.8689 17.3708 20.2176 15.7487 19.7424C14.1267 19.2697 12.8353 18.0273 12.3058 16.4208C11.7712 14.8169 11.9313 14.2822 12.2051 13.8922L21.0256 4.17837L15.2013 3.45779C13.2383 3.21242 11.3167 4.16806 10.3249 5.88569L3.34312 17.976C2.1292 20.081 2.84462 22.7723 4.94709 23.9966L7.48085 25.4715L11.8072 22.9764C12.8894 22.3514 14.1756 22.1809 15.387 22.5064C16.5932 22.8292 17.6238 23.6196 18.2488 24.7018C18.2488 24.7018 18.7861 25.6626 18.8687 26.6777C20.4158 26.0604 22.2032 26.3109 23.5282 27.3751C23.5282 27.3751 23.9105 27.7057 24.0758 27.8865C24.4193 27.7806 24.8067 27.8141 25.1451 28.0027C25.1502 28.0053 37.2043 34.9633 37.2043 34.9633C37.6563 35.2241 38.1909 35.2939 38.692 35.1596C39.1956 35.0278 39.6244 34.6972 39.8853 34.2478L39.8904 34.2401C40.1487 33.7881 40.2211 33.2534 40.0867 32.7524C39.9524 32.2487 39.6218 31.8226 39.1724 31.5591L29.0836 25.7347C28.425 25.355 28.2003 24.5104 28.58 23.8544C28.9597 23.1957 29.8043 22.971 30.4603 23.3507L44.8933 31.6833C45.3427 31.9442 45.8774 32.0139 46.381 31.8822C46.8821 31.7479 47.3108 31.4173 47.5717 30.9678L47.5769 30.9601C47.8352 30.5081 47.9075 29.9734 47.7732 29.4724C47.6389 28.9687 47.3109 28.5399 46.8589 28.2791C42.2226 25.6032 33.6426 20.6467 33.6426 20.6467C32.9839 20.267 32.7592 19.4224 33.1389 18.7664C33.5186 18.1077 34.3632 17.883 35.0218 18.2627L47.5154 25.4792L47.5149 25.4684ZM15.8647 26.0753C16.0972 26.4783 16.2005 27.0697 16.0662 27.5734C15.9319 28.0744 15.6038 28.5032 15.1518 28.7641L9.68653 31.9177C9.23711 32.1786 8.69987 32.2483 8.19881 32.114C7.69773 31.9823 7.26637 31.6517 7.0081 31.2023L7.00293 31.1945C6.74465 30.7425 6.67233 30.2079 6.80663 29.7042C6.94094 29.2032 7.26896 28.777 7.72095 28.5135L13.1863 25.3599C13.6357 25.099 14.1704 25.0293 14.674 25.1636C15.1751 25.2953 15.6322 25.6724 15.8647 26.0753Z" fill="url(#paint0_linear_740_49)"/>
<defs>
<linearGradient id="paint0_linear_740_49" x1="27.5" y1="0.66333" x2="27.5" y2="43.3367" gradientUnits="userSpaceOnUse">
<stop stop-color="#049E76"/>
<stop offset="1" stop-color="white"/>
</linearGradient>
</defs>
</svg>
