<svg width="56" height="57" viewBox="0 0 56 57" fill="none" xmlns="http://www.w3.org/2000/svg">
<path d="M0.00709397 37.186C0.00709397 40.1115 1.47269 42.8021 3.8352 44.1873L22.09 54.9179C25.6848 57.0274 30.3222 57.0274 33.9171 54.9179L52.1719 44.1873C54.5343 42.8021 56 40.1115 56 37.186C56 34.2605 54.5891 31.7051 52.3214 30.2961L49.485 28.5249L52.3214 26.7537C54.5891 25.3367 56 22.6977 56 19.8638C56 17.0299 54.5344 14.2477 52.1719 12.8625L33.9171 2.13195C32.1051 1.06124 30.0635 0.5 28 0.5C25.9365 0.5 23.8949 1.06122 22.0829 2.13195L3.82811 12.8625C1.46569 14.2477 0 16.9383 0 19.8638C0 22.7893 1.4109 25.3447 3.67859 26.7537L6.51505 28.5249L3.67859 30.2961C1.4109 31.7131 0 34.3521 0 37.186H0.00709397ZM5.60702 23.2793C4.45857 22.6067 3.74038 21.2932 3.74038 19.8642C3.74038 18.4393 4.4586 17.1338 5.60702 16.4491L23.8618 5.71855C26.4176 4.22192 29.593 4.22192 32.1487 5.71855L50.4035 16.4491C51.552 17.1218 52.2702 18.4353 52.2702 19.8642C52.2702 21.2891 51.5519 22.5947 50.4035 23.2793L45.4088 26.2128L33.9205 19.4583C30.3257 17.3487 25.6884 17.3487 22.0935 19.4583L10.6052 26.2128L5.61047 23.2793H5.60702ZM41.4745 28.5253L32.1523 34.0061C30.8835 34.7505 29.4471 35.1485 28.007 35.1485C26.5705 35.1485 25.1341 34.7505 23.8617 34.0061L14.5395 28.5253L23.8617 23.0445C26.4175 21.5478 29.5929 21.5478 32.1486 23.0445L41.4709 28.5253H41.4745ZM5.60702 33.7713L10.6018 30.8378L22.09 37.5923C25.6848 39.7019 30.3222 39.7019 33.9171 37.5923L45.4053 30.8378L50.4001 33.7713C51.5485 34.4439 52.2667 35.7574 52.2667 37.1864C52.2667 38.6113 51.5485 39.9169 50.4001 40.6015L32.1453 51.3321C30.8765 52.0764 29.4401 52.4744 28 52.4744C26.5635 52.4744 25.1271 52.0764 23.8547 51.3321L5.59993 40.6015C4.45147 39.9288 3.73328 38.6154 3.73328 37.1864C3.73328 35.7615 4.4515 34.4559 5.59993 33.7713H5.60702Z" fill="url(#paint0_linear_476_370)"/>
<defs>
<linearGradient id="paint0_linear_476_370" x1="28" y1="0.5" x2="28" y2="56.5" gradientUnits="userSpaceOnUse">
<stop stop-color="#049E76"/>
<stop offset="1" stop-color="white"/>
</linearGradient>
</defs>
</svg>
