<svg width="56" height="57" viewBox="0 0 56 57" fill="none" xmlns="http://www.w3.org/2000/svg">
<path d="M35.5957 24.7699H35.8654C36.4522 24.7699 36.9662 24.5001 37.3015 24.0152C37.6368 23.5375 37.7024 22.9796 37.5056 22.4363C35.7233 17.6086 31.2548 14.491 26.1231 14.491C25.9263 14.491 25.7404 14.491 25.5436 14.502C19.3657 14.79 14.2992 19.8584 14.0118 26.0385C13.7603 31.3512 16.9495 36.1684 21.932 38.0054C22.4641 38.2023 23.0436 38.1258 23.5102 37.8012C23.9949 37.4658 24.2646 36.9516 24.2646 36.3646V36.0947C24.2646 35.3837 23.769 34.7237 23.0145 34.4247C19.8035 33.1375 17.6859 29.9543 17.7332 26.5012C17.7988 22.0017 21.5128 18.2861 26.0105 18.2205H26.0652C29.5095 18.2205 32.6622 20.3389 33.9307 23.504C34.2368 24.2588 34.8928 24.7546 35.6 24.7546L35.5957 24.7699Z" fill="url(#paint0_linear_476_74)"/>
<path d="M22.3583 52.5038C22.8139 52.5695 23.2731 52.4382 23.6449 52.11C24.0385 51.7746 24.2609 51.2787 24.2609 50.7645V50.4947C24.2609 49.6342 23.6267 48.9159 22.7592 48.7883C10.8262 46.9761 2.53029 36.1315 3.87578 24.0806C5.02391 13.8014 13.3016 5.52447 23.5719 4.37632C35.6178 3.03084 46.4609 11.3298 48.2618 23.2676C48.393 24.1354 49.111 24.7699 49.9784 24.7699H50.2481C50.7621 24.7699 51.2541 24.5475 51.5931 24.1537C51.9102 23.7817 52.0487 23.3332 51.9867 22.8665C50.1388 10.1155 38.9966 0.5 26.0754 0.5C25.536 0.5 24.9929 0.518231 24.4426 0.554695C11.361 1.37512 0.871431 11.8691 0.051265 24.9562C-0.797975 38.4623 8.99919 50.5711 22.3609 52.5043L22.3583 52.5038Z" fill="url(#paint1_linear_476_74)"/>
<path d="M40.8955 38.7718H52.2528C52.774 38.7718 53.2807 38.5493 53.6342 38.1555C53.9878 37.7617 54.1664 37.2512 54.1117 36.7079C54.0169 35.7635 53.1312 35.027 52.0961 35.027H40.1267C37.0396 35.027 34.5283 37.5393 34.5283 40.6277V52.6021C34.5283 53.6486 35.2645 54.5346 36.2086 54.6185C36.7589 54.6659 37.2546 54.5055 37.6556 54.1408C38.0492 53.7871 38.2715 53.2803 38.2715 52.7589V41.3968L52.8181 55.9494C53.1643 56.2958 53.6491 56.5 54.1339 56.5C55.1617 56.5 56 55.6613 56 54.6331C56 54.1372 55.8032 53.6631 55.4496 53.3167L40.9031 38.7642L40.8955 38.7718Z" fill="url(#paint2_linear_476_74)"/>
<defs>
<linearGradient id="paint0_linear_476_74" x1="28" y1="0.5" x2="28" y2="56.5" gradientUnits="userSpaceOnUse">
<stop stop-color="#049E76"/>
<stop offset="1" stop-color="white"/>
</linearGradient>
<linearGradient id="paint1_linear_476_74" x1="28" y1="0.5" x2="28" y2="56.5" gradientUnits="userSpaceOnUse">
<stop stop-color="#049E76"/>
<stop offset="1" stop-color="white"/>
</linearGradient>
<linearGradient id="paint2_linear_476_74" x1="28" y1="0.5" x2="28" y2="56.5" gradientUnits="userSpaceOnUse">
<stop stop-color="#049E76"/>
<stop offset="1" stop-color="white"/>
</linearGradient>
</defs>
</svg>
