<svg width="140" height="44" viewBox="0 0 140 44" fill="none" xmlns="http://www.w3.org/2000/svg">
<path d="M62.7235 29.5789C61.3377 28.7605 60.1978 27.8485 59.1932 26.6037C58.4512 25.6854 57.8135 24.7589 57.3436 23.6863C56.115 20.8812 56.1755 17.8282 56.0731 14.8516C56.5019 15.4226 57.1436 16.1542 57.5064 16.4215C60.3338 18.5046 63.2938 19.8927 65.5681 22.5869C66.6613 23.882 67.4521 25.2053 67.8774 26.8538C68.2512 28.3045 68.245 29.7353 68.2485 31.1971C66.337 30.9753 64.4488 30.5978 62.7235 29.5789Z" fill="black"/>
<path d="M66.2195 1.38499C59.6096 1.1742 56.4537 4.90994 55.9103 8.39425C55.5763 10.5318 56.2078 12.4372 57.4322 14.1994C58.7308 16.069 60.8003 16.9624 62.4755 18.2541C61.9759 15.0611 61.0511 11.2641 62.4136 8.48793C63.592 6.08791 66.2696 5.06494 68.8078 5.1166C70.6952 5.15518 72.5174 5.75381 73.7452 7.29894C75.4066 9.38967 75.1696 12.0818 74.6859 14.5004C76.3816 13.339 77.4391 11.5982 77.3655 9.87188C77.0701 2.95975 68.2478 1.44974 66.2195 1.38499Z" fill="black"/>
<path d="M69.2262 16.6869C72.092 17.0548 75.1496 16.5712 77.0591 14.145C78.6559 12.1169 78.9452 9.50888 78.166 7.14123C77.1903 4.1784 74.9222 2.64359 71.4668 1.59238C74.7346 0.745066 78.2594 1.3616 80.2506 4.42019C81.6681 6.59633 81.9787 9.14515 81.2902 11.632C80.8512 13.2191 79.9916 14.5211 78.7184 15.5206C74.9057 18.5131 70.4939 20.9958 69.018 25.7249C68.1811 23.0982 66.2449 20.9889 64.0496 19.4114C63.5748 17.4178 63.1385 15.4194 62.9303 13.3783C64.4213 15.3388 66.7959 16.3748 69.2262 16.6869Z" fill="black"/>
<path d="M73.6023 21.1286C75.5262 19.3458 77.5689 18.0969 79.7127 16.5201C80.4973 15.9435 81.0484 15.2401 81.6132 14.501C81.7155 18.0521 81.8179 21.7162 79.8604 24.9511C77.6692 28.5712 74.0049 30.883 69.9277 31.1269C69.4852 27.4269 70.8051 23.7208 73.6023 21.1286Z" fill="black"/>
<path d="M63.5879 9.55847C63.2148 11.5583 64.3231 13.8853 67.0241 14.8166C68.8985 15.4635 71.3054 15.7094 73.1454 15.0997C73.7054 14.012 74.0215 11.7649 73.7061 10.1516C71.8523 14.3957 67.584 13.2384 66.3239 12.0109C65.0645 10.7833 65.799 8.88889 67.0935 8.6781C65.799 9.90635 67.2439 12.5702 70.3476 11.6251C73.6236 10.6269 73.59 6.99105 70.0246 6.43307C66.6826 5.91021 63.9974 7.36166 63.5879 9.55847Z" fill="black"/>
<path d="M85.2665 42.6028H83.9033C83.9507 39.2804 83.9809 33.8914 83.8868 32.5012H86.8715C90.2294 32.5012 90.7461 36.4794 87.459 37.594L91.3301 42.5794H90.1311C89.8027 42.556 89.6378 42.485 89.3794 42.1316C89.1211 41.7782 85.7839 37.2338 85.7839 37.2338C86.6771 37.1401 87.2405 37.0657 87.7812 36.4767C88.322 35.8877 88.5748 34.8413 88.0698 33.9623C87.6239 33.1846 86.8482 33.1846 86.7307 33.1846C86.6132 33.1846 85.1325 33.208 85.1325 33.208C85.0384 35.4937 85.1023 41.1183 85.2665 42.6028Z" fill="#020505"/>
<path d="M107.938 42.6027C107.867 40.2234 107.844 34.824 107.891 33.1983C108.408 33.1983 110.218 33.2451 111.252 33.2685V32.5618H103.378V33.2685C104.412 33.2451 106.132 33.1983 106.648 33.1983C106.696 34.824 106.641 40.2234 106.571 42.6027H107.938Z" fill="#020505"/>
<path d="M114.094 32.5315H115.104C117.078 34.8172 120.486 38.6845 122.178 40.3336C122.202 37.7187 122.155 34.1806 122.084 32.5081H123.024C123 35.3586 122.987 39.4705 123.071 42.549H122.343C119.687 39.3678 115.879 35.0996 114.916 34.2282C114.893 36.5841 114.916 41.0411 114.987 42.5725H114.047C114.117 39.6034 114.14 34.8172 114.094 32.5315Z" fill="#020505"/>
<path d="M82.2137 37.9529C82.2137 37.9832 80.9433 37.9529 80.9433 37.9529V41.2891C79.8233 41.9566 78.4889 42.246 76.8282 41.4407C74.185 40.1601 73.8146 35.172 76.8282 33.4636C78.9156 32.2808 80.9735 33.1301 82.0928 33.7977V32.827C80.5193 32.0383 77.7964 31.8261 75.8601 32.9483C72.3813 34.9646 72.8541 40.3957 75.8299 41.8657C78.9521 43.4081 81.1247 42.2597 82.1835 41.8657L82.2137 37.9529Z" fill="#020505"/>
<path d="M132.981 37.9529C132.981 37.9832 131.71 37.9529 131.71 37.9529V41.2891C130.59 41.9566 129.256 42.246 127.595 41.4407C124.952 40.1601 124.581 35.172 127.595 33.4636C129.682 32.2808 131.74 33.1301 132.86 33.7977V32.827C131.286 32.0383 128.563 31.8261 126.627 32.9483C123.148 34.9646 123.621 40.3957 126.597 41.8657C129.719 43.4081 131.891 42.2597 132.95 41.8657L132.981 37.9529Z" fill="#020505"/>
<path fill-rule="evenodd" clip-rule="evenodd" d="M99.0517 41.8788C100.746 41.8485 101.819 41.8182 103.241 41.697L103.014 42.5766L97.6741 42.607C97.795 38.4813 97.8252 36.2976 97.7345 32.5667L102.923 32.5515L102.939 33.2948C101.063 33.2645 100.406 33.2032 99.1053 33.2335C99.0709 34.51 99.049 35.7747 99.0373 36.8735C100.398 36.8735 100.609 36.8735 102.878 36.8129V37.6319C100.548 37.5713 99.0304 37.6319 99.0304 37.6319C99.0201 39.1626 99.029 40.5507 99.0517 41.8788Z" fill="#020505"/>
<path fill-rule="evenodd" clip-rule="evenodd" d="M92.6679 41.8788C94.3623 41.8485 95.4348 41.8182 96.8571 41.697L96.6304 42.5766L91.2903 42.607C91.4112 38.4813 91.4414 36.2976 91.3507 32.5667L96.5397 32.5515L96.5548 33.2948C94.679 33.2645 94.0222 33.2032 92.7215 33.2335C92.6871 34.51 92.6652 35.7747 92.6535 36.8735C94.0146 36.8735 94.2249 36.8735 96.4944 36.8129V37.6319C94.1644 37.5713 92.6466 37.6319 92.6466 37.6319C92.6363 39.1626 92.6452 40.5507 92.6679 41.8788Z" fill="#020505"/>
<path d="M138.154 33.3251V32.4151C136.824 32.112 135.129 32.0817 134.282 32.9311C133.435 33.7798 132.56 35.8684 135.431 37.4804C136.188 37.9054 137.438 38.5957 137.64 39.6035C138.205 42.4182 134.245 42.857 132.891 40.665L132.708 41.8485C133.858 42.8797 136.369 43.001 137.277 42.3638C138.33 41.6253 138.857 40.798 138.73 39.4216C138.626 38.3077 138.094 37.6016 136.914 36.8129C135.734 36.0248 134.463 35.5694 134.463 34.4473C134.463 32.6411 136.854 32.5735 138.154 33.3251Z" fill="#020505"/>
<path fill-rule="evenodd" clip-rule="evenodd" d="M42.3696 33.7192C43.7775 32.865 46.036 32.8471 47.7517 34.167V33.1068C46.0326 32.3449 43.9218 32.1499 42.1814 32.8237C38.7981 34.1346 38.0877 38.7962 40.2307 41.0467C42.1532 43.0658 44.8844 42.979 47.3284 42.3432C48.0574 39.8687 49.8432 34.7559 50.2898 33.8838C51.3005 36.0049 53.2608 41.8217 53.5666 42.6697H54.9765L51.0422 32.4234H49.8432C49.2557 34.5203 47.1168 40.5052 46.6235 41.6598C44.8137 42.319 43.4834 42.3452 42.0879 41.4476C39.6982 39.9108 39.7841 35.2871 42.3696 33.7192Z" fill="#020505"/>
<path d="M2.37099 42.691H1.25171C2.0082 40.9013 4.88233 33.1363 5.03349 32.6514H6.2737C7.09066 34.8654 9.20829 40.6891 10.1159 42.691H8.66411C7.81692 40.3254 6.09231 35.4117 5.45674 33.9857C4.51886 36.5338 3.85375 38.1713 2.37099 42.691Z" fill="#020505"/>
<path d="M55.4286 32.5681H56.4393C58.4134 34.8538 61.8214 38.7817 63.5137 40.4316C63.537 37.8159 63.4896 34.2173 63.4196 32.5447H64.3595C64.3361 35.3952 64.3829 40.9027 64.4062 42.6463H63.6779C61.0223 39.4651 57.2151 35.1362 56.2511 34.2648C56.2277 36.6207 56.2511 41.1376 56.3218 42.6697H55.3819C55.452 39.7007 55.476 34.8538 55.4286 32.5681Z" fill="#020505"/>
<path d="M36.71 32.6343H38.1014C37.9804 36.7592 37.9804 39.8612 38.0409 42.7118H36.6495C36.7705 38.5868 36.8007 36.3652 36.71 32.6343Z" fill="#020505"/>
<path fill-rule="evenodd" clip-rule="evenodd" d="M24.2007 41.9767C25.8951 41.9464 26.9677 41.9161 28.39 41.7949L28.1632 42.6739L22.8231 42.7042C22.944 38.5792 22.9743 36.3955 22.8836 32.6646L28.0719 32.6494L28.087 33.3927C26.2112 33.3624 25.555 33.3011 24.2537 33.3314C24.22 34.6079 24.198 35.8726 24.1863 36.9714C25.5475 36.9714 25.7577 36.9714 28.0265 36.9108V37.7298C25.6972 37.6692 24.1794 37.7298 24.1794 37.7298C24.1685 39.2605 24.1781 40.6486 24.2007 41.9767Z" fill="#020505"/>
<path d="M10.0555 42.7042H11.0236C11.3266 39.3074 11.6894 36.122 11.9615 34.4543C13.4442 37.3055 15.2293 41.4001 15.8037 42.7345C17.1958 39.4589 19.132 35.4855 19.6762 34.4846C20.1304 37.6995 20.5234 40.9145 20.6443 42.7042H22.0364C21.5218 39.4286 21.0985 36.122 20.7357 32.6033H19.5251C18.3151 35.5158 17.1044 38.0936 15.9851 40.1567C14.4728 37.2139 13.5047 34.9392 12.5668 32.6343C12.5668 32.6343 11.2984 32.604 11.2957 32.6343C10.9329 36.5167 10.4183 40.3689 10.0555 42.7042Z" fill="#020505"/>
<path d="M30.5653 42.7303H29.2021C29.2495 39.4078 29.2797 34.0188 29.1856 32.6287H32.1704C35.5282 32.6287 36.0449 36.6069 32.7578 37.7215L36.6289 42.7068H35.4299C35.1015 42.6834 34.9366 42.6125 34.6783 42.2591C34.4199 41.9057 31.082 37.3612 31.082 37.3612C31.9752 37.2668 32.5393 37.1931 33.0801 36.6041C33.6208 36.0152 33.8737 34.9688 33.3687 34.0898C32.922 33.312 32.0556 33.2211 31.9388 33.2211C31.8206 33.2211 30.3406 33.2445 30.3406 33.2445C30.2465 35.5302 30.4011 41.2457 30.5653 42.7303Z" fill="#020505"/>
<path d="M48.3625 38.7142H52.3812V38.0781H48.3625V38.7142Z" fill="#020505"/>
<path d="M3.52051 38.8994H7.66542V38.1714H3.52051V38.8994Z" fill="#020505"/>
<path d="M111.93 32.5447H113.186C113.065 36.6696 113.065 39.7716 113.126 42.6229H111.87C111.99 38.4972 112.021 36.2756 111.93 32.5447Z" fill="#020505"/>
</svg>
