<svg width="312" height="65" fill="none" xmlns="http://www.w3.org/2000/svg"><path fill-rule="evenodd" clipRule="evenodd" d="M129.887 31.083h12.754v7.602c-2.833 2.267-6.516 3.825-11.053 3.825-9.562 0-16.933-7.368-16.933-17.005 0-9.422 7.084-17.002 16.509-17.002 4.888 0 9.068 2.124 12.044 5.102l6.165-6.52C144.909 2.764 138.601 0 131.234 0c-15.443 0-26.143 11.267-26.143 25.505 0 14.242 10.839 25.51 26.285 25.51 9.068 0 16.438-3.901 20.83-9.494v-18.94h-22.319v8.502zM73.096 28.22l6.8-17.75 6.757 17.75H73.096zm.47-27.642L55.312 50.305H65.3l4.942-13.523h19.4l4.923 13.523h9.989L86.298.578H73.566zM284.28 39.576c-1.2 1.352-3.045 2.202-6.375 2.202h-9.562V28.28h9.562c3.33 0 5.175.854 6.375 2.205 1.136 1.205 1.773 2.768 1.773 4.545 0 1.775-.637 3.337-1.773 4.545zM268.343 9.102h6.729c2.973 0 4.322.71 5.312 1.775.851.924 1.419 2.202 1.419 3.552s-.568 2.63-1.419 3.552c-.99 1.066-2.339 1.775-5.312 1.775h-6.729V9.102zm19.834 13.282c1.627-1.704 3.19-5.042 3.19-8.31 0-4.048-1.842-7.598-4.607-10.016-2.409-2.133-5.525-3.48-11.121-3.48h-16.864v49.726h19.343c6.375 0 10.202-1.705 12.965-4.476 2.761-2.7 4.534-6.535 4.534-10.726 0-5.54-3.046-10.513-7.44-12.718zm14.044 27.92h9.59V15.922h-9.59v34.382zM169.585 22.41V9.18h9.588c3.339 0 5.188.833 6.392 2.157 1.139 1.185 1.778 2.715 1.778 4.457 0 1.74-.639 3.273-1.778 4.456-1.204 1.323-3.053 2.16-6.392 2.16h-9.588zm14.611 8.364c3.801-.628 6.423-2.092 8.466-4.136a15.174 15.174 0 004.544-10.792c0-4.19-1.774-8.094-4.544-10.792-2.771-2.77-6.608-4.476-13.001-4.476h-19.363v49.726h9.562V31.115h3.48l14.05 19.19h11.222l-14.453-19.528.037-.003zM.002 64.631h49.59V57.46H.002v7.172zM221.829 28.22l6.543-17.849 6.544 17.85h-13.087zm.176-27.642l-18.256 49.727h9.991l4.964-13.523h19.35l4.949 13.523h9.989L234.736.578h-12.731zm-179.14 0L24.797 30.341 6.731.578H0v49.726h9.566V22.596l11.902 19.538h6.66l11.903-19.538v27.708h9.562V.578h-6.728zm259.356 8.573h9.589V.58h-9.589v8.572z" fill="#000"/></svg>