<svg width="173" height="48" viewBox="0 0 173 48" fill="none" xmlns="http://www.w3.org/2000/svg">
<g clip-path="url(#clip0_328_44)">
<path d="M161.706 9.67822C158.639 9.67822 155.855 10.6759 153.72 12.5127L153.105 10.3356H147.692V37.7062H154.573V22.8344C154.573 19.6689 156.695 16.4614 160.746 16.4614C163.916 16.4614 165.804 18.6945 165.804 22.4288V37.7109H172.685V21.9253C172.685 14.4848 168.378 9.67822 161.706 9.67822ZM106.709 23.9999C106.709 28.3682 103.86 31.5384 99.9301 31.5384C96 31.5384 93.1515 28.3682 93.1515 23.9999C93.1515 19.6316 96 16.4614 99.9301 16.4614C103.855 16.4614 106.709 19.6316 106.709 23.9999ZM99.9254 9.67822C92.2098 9.67822 86.1632 15.9673 86.1632 23.9952C86.1632 32.0232 92.2051 38.3169 99.9254 38.3169C107.641 38.3169 113.688 32.0279 113.688 23.9952C113.688 15.9673 107.646 9.67822 99.9254 9.67822ZM136.779 23.9999C136.779 28.3682 133.925 31.5384 130 31.5384C126.075 31.5384 123.221 28.3682 123.221 23.9999C123.221 19.6316 126.075 16.4614 130 16.4614C133.93 16.4614 136.779 19.6316 136.779 23.9999ZM130 9.67822C122.284 9.67822 116.238 15.9673 116.238 23.9952C116.238 32.0232 122.28 38.3169 130 38.3169C137.716 38.3169 143.762 32.0279 143.762 23.9952C143.762 15.9673 137.72 9.67822 130 9.67822ZM71.2587 9.67822C68.1958 9.67822 65.4079 10.6759 63.2681 12.5127L62.6527 10.3356H57.2448V37.7062H64.1259V22.8344C64.1259 19.6689 66.2471 16.4614 70.2984 16.4614C73.4685 16.4614 75.3566 18.6945 75.3566 22.4288V37.7109H82.2377V21.9253C82.2377 14.4848 77.9301 9.67822 71.2587 9.67822Z" fill="black"/>
<path d="M0 25.1375C0 38.0047 10.9371 48 23.6503 48C36.9604 48 47.7482 37.2634 47.7482 24.1492C47.7482 16.4802 44.0373 9.74825 38.5455 5.24942L34.5361 12.1772C37.8508 14.9977 40.1259 19.352 40.1259 24.2517C40.1259 33.1562 32.7552 40.4802 23.6503 40.4802C14.5967 40.4802 7.22144 33.1562 7.22144 24.0047C7.22144 22.9138 7.31935 21.8275 7.51981 20.7879L0 25.1375ZM31.0723 1.18881C28.7972 0.344988 26.7692 0 24.7413 0C23.2075 0 21.8695 0.195804 20.8811 0.39627L15.7343 9.3007C17.6131 8.21445 20.0373 7.61772 22.662 7.61772C24.1958 7.61772 25.5804 7.81352 27.0163 8.20979L31.0723 1.18881Z" fill="black"/>
</g>
<defs>
<clipPath id="clip0_328_44">
<rect width="173" height="48" fill="white"/>
</clipPath>
</defs>
</svg>
